<svg xmlns="http://www.w3.org/2000/svg" xmlns:xlink="http://www.w3.org/1999/xlink" width="287.835" height="275.133" viewBox="0 0 287.835 275.133">
  <defs>
    <clipPath id="clip-path">
      <rect id="Rectangle_831" data-name="Rectangle 831" width="287.835" height="275.133"/>
    </clipPath>
  </defs>
  <g id="Group_302" data-name="Group 302" transform="translate(0 0)" opacity="0.225">
    <g id="Group_81" data-name="Group 81" transform="translate(0 0)" clip-path="url(#clip-path)">
      <path id="Path_21" data-name="Path 21" d="M44.777,16.094c.377,0,.741,2.442,1.075,6.9.051.745.105,1.541.167,2.394a17.042,17.042,0,0,1,.16,2.721c-.5.959.922,1.972.153,3.037a9.883,9.883,0,0,0,.146,3.34c.177,1.16-.313,2.37.146,3.629.973,1.255-1.075,2.554.139,3.9a17.964,17.964,0,0,1,.126,4.18c-.738,1.432-.007,2.911.126,4.431-.894,1.517-.507,3.078.116,4.673-1.221,1.6-1.034,3.238.112,4.911.037,1.673-.439,3.387.1,5.132a32.054,32.054,0,0,1,.1,5.339,7.035,7.035,0,0,1,.082,5.543c.881,1.874.534,3.782.078,5.72-.493,1.945.769,3.911.065,5.907-.051,1.989.2,4.013.061,6.06-.364,2.047-.769,4.122.044,6.22a19.576,19.576,0,0,1,.037,6.363c.935,2.143.524,4.305.031,6.485.153,2.183-.51,4.384.014,6.608-.146,2.221.411,4.458.007,6.713a18.333,18.333,0,0,0-.007,6.713c.6,2.217-.245,4.421-.014,6.6-.877,2.187.282,4.35-.031,6.489.085,2.143-.507,4.265-.037,6.363a24.062,24.062,0,0,1-.044,6.217c1.347,2.047-.35,4.071-.061,6.064-.568,2,.088,3.965-.065,5.9.252,1.938-.626,3.85-.078,5.727-.112,1.881.435,3.727-.082,5.54.667,1.813-.565,3.591-.1,5.339,0,1.745.044,3.459-.1,5.132-1.058,1.673-.18,3.312-.112,4.907-.112,1.6.6,3.159-.116,4.676-.085,1.52-.548,3-.126,4.431.156,1.435-1.53,2.829-.126,4.176.248,1.347-1.078,2.653-.139,3.908.864,1.258-.109,2.466-.146,3.625s-.1,2.275-.146,3.34c-.456,9.563-.986,15.045-1.554,15.045-.629,0-1.214-6.768-1.7-18.385-.051-1.16-.789-2.367-.143-3.625,0-1.255-.565-2.561-.139-3.908-.976-1.347-.18-2.741-.133-4.176a18.894,18.894,0,0,0-.122-4.431c-.565-1.517.282-3.074-.116-4.676a7.212,7.212,0,0,0-.109-4.907c.588-1.673-.122-3.387-.1-5.132.9-1.748.269-3.527-.1-5.339-.333-1.813.136-3.659-.088-5.54.177-1.877-.228-3.788-.075-5.727a12.593,12.593,0,0,1-.065-5.9,41.89,41.89,0,0,1-.058-6.064c-.357-2.047.044-4.122-.048-6.217-.187-2.1.959-4.22-.037-6.363-.129-2.139.156-4.3-.027-6.489a36.312,36.312,0,0,0-.017-6.6c.979-2.224.371-4.458,0-6.713a35.419,35.419,0,0,1,0-6.713c-.1-2.224-.048-4.424.017-6.608-.289-2.18.425-4.343.027-6.485-.422-2.146.449-4.265.037-6.363a16.771,16.771,0,0,1,.048-6.22c0-2.047.894-4.071.058-6.06-.187-2-1.306-3.962.065-5.907-.343-1.938.66-3.846.075-5.72,1.007-1.884.054-3.727.088-5.543a15.337,15.337,0,0,0,.1-5.339c-.483-1.745.262-3.459.1-5.132-.575-1.673.752-3.312.109-4.911.133-1.595-.085-3.156.116-4.673-1.35-1.52.01-3,.122-4.431.2-1.435-.891-2.829.133-4.18-1.024-1.347-.139-2.646.139-3.9.3-1.258-.435-2.469.143-3.629-.721-1.166.4-2.279.15-3.34.476-1.064.027-2.078.153-3.037a5.873,5.873,0,0,1,.16-2.721c.061-.854.112-1.649.167-2.394.333-4.455.7-6.9,1.071-6.9" transform="translate(99.119 38.638)"/>
      <path id="Path_22" data-name="Path 22" d="M12.921,8.4c.275-.262,2.408,1.476,6.07,4.907.6.578,1.248,1.2,1.938,1.857A20.112,20.112,0,0,1,23.12,17.3c.364,1.132,2.177,1.013,2.411,2.415a12.258,12.258,0,0,0,2.629,2.666c1.007.854,1.551,2.19,2.833,2.932,1.673.4,1.122,2.853,3.037,3.17a22.171,22.171,0,0,1,3.217,3.394c.52,1.69,2.173,2.435,3.4,3.612.469,1.867,1.935,2.891,3.595,3.792.286,2.149,1.69,3.353,3.792,3.931,1.306,1.306,2.282,3.02,4.03,3.972.7.66,1.456,1.255,2.2,1.881.367.316.724.643,1.081.973s.711.656,1.044,1.017a9.891,9.891,0,0,1,1.4.592,7.352,7.352,0,0,1,1.238.758A10.925,10.925,0,0,1,61.1,54.5c2.105.262,3.506,1.445,5.193,2.462a3.907,3.907,0,0,0,.643.347,3.181,3.181,0,0,0,.7.173c.479.071.966.112,1.456.136a7.2,7.2,0,0,1,2.925.364,39.907,39.907,0,0,0,6.21-.388c2.18.027,4.5-.024,6.516-1.391,1.078-.384,2.153-.792,3.255-1.17a17.736,17.736,0,0,1,3.438-.775c1.976-1.581,4.37-1.949,6.832-2.248,2.245-.932,4.788-1.105,6.955-2.428.6-.17,1.184-.384,1.762-.612l.871-.36.418-.18.044-.044a.323.323,0,0,1,.153-.116.867.867,0,0,1,.139,0c.061,0,.173.034.167-.061a2.789,2.789,0,0,0-.2-1.163l-.068-.163-.126-.248c-.139-.275-.286-.551-.442-.816a12.359,12.359,0,0,0-1.058-1.551,11.887,11.887,0,0,1-1.745-3.234,17.782,17.782,0,0,0-1.534-3.3c-.344-2.561-2.527-4.084-3.418-6.268a32.851,32.851,0,0,1-1.666-3.081,12.533,12.533,0,0,0-1.976-2.816c-.724-.881-1.432-1.758-2.095-2.649a19.95,19.95,0,0,1-1.864-2.741,4.4,4.4,0,0,1-2.411-2.187c-.286-.452-.554-.932-.854-1.381a5.314,5.314,0,0,0-.479-.639,3.891,3.891,0,0,0-.605-.507,6.685,6.685,0,0,0-1.007-1.228,8.4,8.4,0,0,0-1.228-.949c-.429-.282-.854-.568-1.282-.854a10.021,10.021,0,0,1-1.258-.843C81.693,10.682,80.319,9,78.3,8.672a18.842,18.842,0,0,0-2.751-.959,9.017,9.017,0,0,1-2.693-1.027,5.432,5.432,0,0,1-2.785-.605A6.792,6.792,0,0,0,67.3,5.5c-1.874-.2-3.7-.391-5.5-.585a3.7,3.7,0,0,0-1.337-.537,5.467,5.467,0,0,0-1.354-.02c-.9.1-1.779.3-2.653.36-1.758-.054-3.431.68-5.139.1-.837.014-1.673-.078-2.489-.085a6.8,6.8,0,0,0-2.4.35c-1.558.286-3.289-1.194-4.615.374-1.449.408-3.064-.694-4.322.429-1.262,1.044-2.727.275-4.016.449-1.289.156-2.523.3-3.7.442C19.182,8.128,13.061,8.9,12.942,8.312c-.058-.306,1.745-.969,5.152-1.921s8.434-2.177,14.865-3.418c1.279-.258,2.527-1.187,4.027-.745,1.4-.184,2.789-.966,4.36-.711,1.4-1.146,3.061-.554,4.686-.639.809-.1,1.643-.109,2.476-.16a10.979,10.979,0,0,0,2.544-.36c1.694-.7,3.523.112,5.336-.34A8.875,8.875,0,0,0,59.173.4,10.223,10.223,0,0,0,60.591.258c.48-.065.966-.146,1.456-.258C63.94.656,65.967.153,68,.425a6.247,6.247,0,0,0,2.986.925c1.034.143,2.122.133,3.214.2a15.723,15.723,0,0,1,3.163.877c1.02.449,2.054.867,3.125,1.224,1.979,1.088,4.227,1.8,6.084,3.244.548.241,1.088.5,1.612.775a15.851,15.851,0,0,1,1.479,1,10.092,10.092,0,0,1,1.357,1.17,13.558,13.558,0,0,1,1.146,1.4c.241.177.486.354.724.544s.439.394.66.6c.428.415.843.847,1.258,1.286.82.881,1.52,1.86,2.323,2.765a17.708,17.708,0,0,1,2.33,2.772c.667,1.01,1.3,2.044,2.037,3.013a19.1,19.1,0,0,1,1.748,3.224,7.378,7.378,0,0,0,2.166,2.972c1.333,2.068,2.292,4.36,3.6,6.475.541,1.122,1.03,2.265,1.581,3.384s1.146,2.224,1.813,3.3a7.326,7.326,0,0,0,.4,1.9q.158.444.357.877l.282.588.337.67c.918,1.772,2.064,3.635,3.244,5.693l.2.381c.027.058.088.133.088.184l-.2.085-.8.32c-.548.214-1.1.425-1.646.643-1.119.422-2.265.83-3.408,1.224l-.857.3-.456.146-.9.275-1.8.527c-2.323.928-4.69,1.687-7.04,2.418-2.248,1.061-4.785,1.163-7,2.251a12.452,12.452,0,0,1-3.506,1.027,16.786,16.786,0,0,0-3.513.932,17.513,17.513,0,0,1-7.138,1.415,10.354,10.354,0,0,1-1.836.085c-.622-.014-1.217,0-1.836-.054a11.821,11.821,0,0,0-3.687.292,37.966,37.966,0,0,1-3.8.129,7.181,7.181,0,0,1-1.847-.446,3.994,3.994,0,0,1-.854-.442,5.222,5.222,0,0,1-.748-.687,6.5,6.5,0,0,1-1.724-.588c-.531-.286-1.041-.605-1.551-.918-.517-.292-.962-.67-1.466-.949a9.3,9.3,0,0,0-1.578-.721,7.587,7.587,0,0,0-2.493-2.255c-.463-.286-.942-.551-1.415-.83a8.57,8.57,0,0,1-1.3-.949q-.551-.571-1.1-1.146c-.354-.388-.69-.775-1.047-1.143a14.051,14.051,0,0,0-2.326-1.966c-1.775-1.061-2.588-2.989-4.016-4.244-1.707-.993-2.013-3.241-3.686-4.139-1.115-1.415-2.455-2.571-3.445-3.979-2.143-.364-2.241-2.5-3.224-3.782-.932-1.326-2.782-1.762-3.027-3.567-1.768-.442-2.081-2.122-2.823-3.353-.721-1.238-2.166-1.755-2.612-3.108-1.4-.476-1.422-2.146-2.4-2.863-.449-1.2-1.544-1.731-2.177-2.608a7.183,7.183,0,0,1-1.949-2.347c-.6-.741-1.173-1.432-1.7-2.078-3.163-3.877-4.771-6.111-4.5-6.37" transform="translate(30.949 -0.001)"/>
      <path id="Path_23" data-name="Path 23" d="M145.328,13.685c.275.255-1.333,2.493-4.5,6.366-.524.65-1.1,1.343-1.7,2.081a20.079,20.079,0,0,1-1.949,2.35c-1.1.456-.806,2.255-2.173,2.612a12.089,12.089,0,0,0-2.4,2.863c-.741,1.085-2.013,1.762-2.612,3.112-.221,1.69-2.717,1.415-2.819,3.353a22.784,22.784,0,0,1-3.027,3.567c-1.626.7-2.183,2.432-3.227,3.785-1.8.673-2.687,2.228-3.442,3.979a4.805,4.805,0,0,0-3.683,4.139c-1.292,1.4-2.962,2.469-4.013,4.244-.667.741-1.36,1.493-2.088,2.221-.364.364-.728.728-1.122,1.068a15.161,15.161,0,0,1-1.255.966,7.579,7.579,0,0,1-.932,1.391,8.812,8.812,0,0,1-1.207,1.129,8.941,8.941,0,0,1-3.047,1.507,9.047,9.047,0,0,1-6.3,3.173,13.641,13.641,0,0,0-1.772.446c-.585.177-1.163.418-1.755.629a6.865,6.865,0,0,1-3.69.374,31.487,31.487,0,0,1-7.342-.32c-2.353-.731-4.6-1.6-7.132-1.415-1.2-.194-2.415-.377-3.588-.684a14.079,14.079,0,0,1-3.428-1.275c-2.615.177-4.822-1-7-2.251-2.377-.653-4.506-2.088-7.033-2.425-.575-.238-1.166-.435-1.765-.619l-.9-.272-.452-.129-.833-.265c-1.129-.367-2.279-.745-3.4-1.146-.561-.2-1.112-.415-1.646-.633l-.779-.323-.187-.082-.044-.02.027-.051.054-.092.218-.381c1.1-2.006,2.126-3.86,3.02-5.676l.612-1.3c.136-.282.262-.575.377-.867a15.014,15.014,0,0,0,.585-1.813,10.712,10.712,0,0,1,1.554-3.425,24.866,24.866,0,0,0,1.84-3.261c1.918-1.782,2.095-4.489,3.6-6.468A35.092,35.092,0,0,1,55,30.791a14.379,14.379,0,0,0,1.881-3.125c.639-1.041,1.265-2.085,1.955-3.074a18.669,18.669,0,0,1,2.415-2.71,4.782,4.782,0,0,1,2.105-2.955c.5-.357,1.024-.69,1.507-1.051.245-.173.473-.367.7-.561a5.241,5.241,0,0,0,.639-.619,9.368,9.368,0,0,0,1.473-1.024c.439-.384.911-.745,1.343-1.143s.867-.8,1.316-1.177a14.007,14.007,0,0,1,1.452-.99,11.126,11.126,0,0,1,3.04-1.666l.786-.343c.265-.109.527-.221.782-.34a7.092,7.092,0,0,0,1.459-.888c1.051-.408,2.064-.867,3.081-1.33a10.835,10.835,0,0,1,3.19-.772,6.894,6.894,0,0,1,3.1-.738A8.266,8.266,0,0,0,90.31,5.9a38,38,0,0,1,5.955-.425,4.227,4.227,0,0,0,1.456.391,5.76,5.76,0,0,0,1.411-.01c.939-.092,1.87-.367,2.785-.374,1.819.173,3.649-.51,5.336.337.86.1,1.7.286,2.534.422a7.152,7.152,0,0,0,2.479.1c1.649-.017,3.013,1.86,4.686.639,1.554-.082,2.829,1.449,4.36.714,1.53-.67,2.744.49,4.03.738s2.517.493,3.683.738c10.532,2.258,16.433,4.064,16.331,4.591-.065.313-1.983.248-5.492-.143-3.513-.374-8.611-1.078-15.042-1.823-1.292-.16-2.731.377-4.02-.442-1.388-.2-2.891.15-4.326-.432-1.595.8-3.03-.194-4.611-.374-.789-.044-1.588-.187-2.4-.289a9.236,9.236,0,0,0-2.486.027c-1.7.435-3.37-.435-5.135-.092a6.7,6.7,0,0,0-2.653-.374,10.134,10.134,0,0,0-1.343.167,12.09,12.09,0,0,0-1.34.4c-1.857-.517-3.649.391-5.5.592a5.182,5.182,0,0,0-2.863.037c-.908.306-1.785.758-2.673,1.146a13.529,13.529,0,0,1-2.724.922,13.915,13.915,0,0,0-2.7,1.064,32.229,32.229,0,0,0-5.156,2.914c-.354.371-.718.721-1.1,1.054-.364.357-.731.714-1.119,1.034s-.813.605-1.221.925a11.15,11.15,0,0,1-1.326.847l-1.044,1.183c-.354.394-.724.772-1.105,1.146-.755.745-1.476,1.561-2.194,2.377A17.986,17.986,0,0,1,63.845,28.3c-.684.881-1.394,1.758-2.01,2.714a17.437,17.437,0,0,1-2.109,2.724A6.629,6.629,0,0,0,58.2,36.9c-1.058,2.1-2.466,4.04-3.421,6.268-.626,1.027-1.224,2.088-1.785,3.17a24.32,24.32,0,0,0-1.5,3.363,7.3,7.3,0,0,0-1.228,1.462c-.17.262-.323.531-.466.806-.088.184-.085.173-.116.248s-.044.122-.065.184a1.652,1.652,0,0,0,.034,1.139c-.024.092.085.054.133.054l.129-.007a.224.224,0,0,1,.146.031q1.541.627,3.074,1.258c2.374.735,4.68,1.581,6.958,2.428,2.387.5,4.448,1.935,6.829,2.255a14.747,14.747,0,0,1,3.363,1.02,10.694,10.694,0,0,0,3.323.922,26.967,26.967,0,0,1,6.506,1.391c.534.092,1.051.173,1.571.309a14.5,14.5,0,0,0,1.561.354,8.829,8.829,0,0,0,1.554.109,3.68,3.68,0,0,0,1.507-.388,17.274,17.274,0,0,0,2.816-.867,4.474,4.474,0,0,1,1.357-.326A5.052,5.052,0,0,1,92,62.259a8.5,8.5,0,0,1,1.316-.541c.446-.17.911-.306,1.374-.439a6.274,6.274,0,0,0,1.333-.578,3.647,3.647,0,0,0,1.146-.9A4.384,4.384,0,0,0,99.8,58.447c.354-.343.687-.714,1.03-1.054a11.6,11.6,0,0,1,1.044-1.041q.607-.413,1.207-.826c.395-.289.779-.592,1.153-.9a8.884,8.884,0,0,0,1.955-2.139c1.03-1.666,2.86-2.523,4.027-3.976.847-1.751,3.068-2.17,3.792-3.931,1.3-1.228,2.306-2.659,3.591-3.792.129-2.166,2.245-2.489,3.4-3.612,1.217-1.071,1.445-2.962,3.217-3.4.252-1.8,1.881-2.306,3.034-3.166s1.534-2.347,2.829-2.932c.347-1.445,2.017-1.619,2.636-2.666,1.153-.565,1.585-1.711,2.408-2.415a7.343,7.343,0,0,1,2.19-2.136c.69-.667,1.34-1.289,1.942-1.867,3.663-3.425,5.795-5.166,6.07-4.9" transform="translate(98.633 12.918)"/>
      <path id="Path_24" data-name="Path 24" d="M.021,37.55c.272-.258,3.227,2.35,8.38,7.38q1.28,1.27,2.741,2.731a41.276,41.276,0,0,1,3.1,3.115c.68,1.476,2.829,1.731,3.414,3.513a25.614,25.614,0,0,0,3.734,3.884c1.381,1.279,2.326,3.054,4.027,4.251,2.085.857,1.955,3.792,4.309,4.595a45.878,45.878,0,0,1,4.588,4.931c.993,2.221,3.129,3.5,4.863,5.23.966,2.421,2.942,4.016,5.132,5.5a9.051,9.051,0,0,0,5.431,5.7c1.877,1.9,3.425,4.22,5.792,5.778,1.007.962,2.078,1.857,3.132,2.778.527.463,1.051.942,1.568,1.422s1.047.942,1.551,1.449c.673.3,1.3.67,1.918,1.024A15.221,15.221,0,0,1,65.47,102a26.4,26.4,0,0,1,3.183,2.894c2.894.748,5.122,2.391,7.716,3.7a9.523,9.523,0,0,0,.979.463,6.832,6.832,0,0,0,1.054.265c.714.126,1.435.224,2.153.3a19.276,19.276,0,0,1,4.377.531l1.115.061.561.027.571-.031c.758-.037,1.52-.085,2.285-.129a10.962,10.962,0,0,0,1.146-.105l1.16-.139c.775-.1,1.551-.122,2.34-.224,3.176-.133,6.5-.377,9.509-2.006q2.367-.791,4.758-1.575a39.532,39.532,0,0,1,4.938-1.228c2.983-1.887,6.383-2.588,9.866-3.234,3.261-1.279,6.829-1.8,10.026-3.489,1.711-.514,3.367-1.214,5.04-1.884l.633-.245.313-.126.041-.02a.343.343,0,0,1,.129-.058.564.564,0,0,1,.17-.02c.071,0,.211.017.214-.031a.805.805,0,0,0,.031-.4l-.024-.143-.248-.612-.537-1.238a28.991,28.991,0,0,0-2.605-4.693,25.867,25.867,0,0,1-2.479-4.7,33.894,33.894,0,0,0-2.272-4.737,14.865,14.865,0,0,0-2.258-4.683,31.785,31.785,0,0,1-2.7-4.377c-.911-1.432-1.663-2.948-2.472-4.421a26.566,26.566,0,0,0-2.823-4.125c-1.02-1.3-2.02-2.595-2.979-3.9a46.442,46.442,0,0,1-2.8-3.938,6.752,6.752,0,0,1-1.942-1.462,21.128,21.128,0,0,1-1.459-1.85c-.459-.629-.9-1.289-1.371-1.915a10.589,10.589,0,0,0-.741-.9,9.176,9.176,0,0,0-.874-.752,14.116,14.116,0,0,0-1.551-1.717,14.692,14.692,0,0,0-1.792-1.408c-.622-.435-1.238-.871-1.85-1.3-.639-.4-1.265-.8-1.857-1.248-2.564-1.449-4.771-3.564-7.631-4.268a6.043,6.043,0,0,0-.986-.435l-1.01-.36c-.68-.224-1.357-.452-2.023-.67A19.559,19.559,0,0,1,86.5,34.02a11.478,11.478,0,0,1-4.078-.9,14.1,14.1,0,0,0-4.044-.782c-1.35-.187-2.7-.289-4.033-.449l-1-.105-1-.075c-.656-.051-1.32-.112-1.976-.184a6.843,6.843,0,0,0-1.949-.571,11.128,11.128,0,0,0-1.962-.027c-1.3.1-2.578.282-3.843.357-2.551-.027-4.982.714-7.434.194-1.207.041-2.408-.037-3.591-.017a14.084,14.084,0,0,0-3.469.452c-2.255.34-4.666-1.051-6.652.592-2.105.483-4.353-.531-6.227.684a5.317,5.317,0,0,1-2.9.673,23.121,23.121,0,0,0-2.88.037q-2.775.357-5.319.7C8.918,36.727.161,38.064.045,37.469c-.061-.306,2.557-1.126,7.482-2.384,2.462-.616,5.513-1.309,9.087-2.115,3.591-.745,7.7-1.615,12.331-2.438.925-.173,1.843-.52,2.8-.779a7.052,7.052,0,0,1,3-.224c2.017-.279,4.03-1.149,6.264-.962,2.057-1.228,4.4-.721,6.73-.864,1.156-.129,2.343-.177,3.54-.265a21.856,21.856,0,0,0,3.646-.429c2.438-.765,5.03.044,7.628-.432a18.819,18.819,0,0,0,3.979.388c.667-.01,1.343-.061,2.023-.136.684-.054,1.374-.122,2.071-.224a11.513,11.513,0,0,0,2.064.337c.343.031.694.048,1.047.054s.7.027,1.058.044a40.678,40.678,0,0,1,4.3.214,12.428,12.428,0,0,0,4.268,1.136c1.462.238,2.983.326,4.513.5a29.181,29.181,0,0,1,4.448,1.269c.721.3,1.445.609,2.177.894.367.146.735.282,1.105.418s.752.262,1.119.411c2.816,1.473,5.9,2.612,8.546,4.6.745.374,1.476.762,2.2,1.177.7.445,1.377.939,2.047,1.439a18.342,18.342,0,0,1,1.921,1.629c.588.6,1.153,1.235,1.69,1.891.337.258.667.52,1,.789s.612.578.918.871c.6.588,1.187,1.2,1.772,1.819s1.119,1.275,1.666,1.928,1.1,1.306,1.643,1.959a32.84,32.84,0,0,1,3.268,3.972c.973,1.415,1.891,2.877,2.932,4.268a38.616,38.616,0,0,1,2.591,4.52,14.853,14.853,0,0,0,2.976,4.326c1.857,2.976,3.333,6.2,5.139,9.264.769,1.6,1.544,3.214,2.323,4.826.8,1.6,1.636,3.19,2.537,4.754a18.249,18.249,0,0,0,1.9,5.1c.211.4.429.8.653,1.187l.354.605.575,1.078q1.24,2.275,2.483,4.56l.306.592.075.15.041.078c.014.02.034.051,0,.054l-.289.116-1.17.456-2.408.908-2.445.891-1.564.554c-1.707.582-3.425,1.115-5.145,1.639-3.35,1.286-6.737,2.4-10.1,3.476-3.272,1.4-6.815,1.833-10.032,3.238a24.585,24.585,0,0,1-5.006,1.476c-.854.18-1.694.381-2.534.585a17.893,17.893,0,0,0-2.486.748,31.839,31.839,0,0,1-10.131,2.03,19.217,19.217,0,0,1-2.585.177l-1.289.02c-.428.014-.857.014-1.292-.014a24.05,24.05,0,0,0-2.574.027l-.636.061c-.218,0-.435.017-.653.031-.429.037-.864.1-1.3.177a49.16,49.16,0,0,1-5.247-.034,13.053,13.053,0,0,1-2.547-.612,6.4,6.4,0,0,1-1.2-.534,8.729,8.729,0,0,1-1.085-.809c-.411-.1-.82-.218-1.221-.354a6.666,6.666,0,0,1-1.17-.483c-.745-.384-1.469-.8-2.187-1.207l-.541-.306-.514-.34c-.34-.218-.684-.439-1.037-.639s-.7-.4-1.068-.571-.731-.337-1.1-.51a15.959,15.959,0,0,0-3.615-3.04c-.646-.425-1.3-.83-1.952-1.248a18.056,18.056,0,0,1-1.806-1.377c-.534-.534-1.068-1.058-1.6-1.588s-1.013-1.071-1.534-1.588a31.154,31.154,0,0,0-3.261-2.863c-2.391-1.66-3.778-4.2-5.778-6.047-2.268-1.6-3.125-4.428-5.326-5.914-1.643-2-3.5-3.717-4.986-5.679-2.646-.915-3.224-3.6-4.68-5.4-1.394-1.85-3.7-2.8-4.394-5.1-2.211-.932-2.949-3.091-4.1-4.775-1.136-1.7-2.979-2.659-3.809-4.438-1.785-.9-2.166-2.976-3.506-4.074-.8-1.581-2.228-2.486-3.176-3.714a14.817,14.817,0,0,1-2.853-3.326q-1.337-1.581-2.5-2.949C2.174,40.917-.258,37.812.021,37.55" transform="translate(-0.001 63.803)"/>
      <path id="Path_25" data-name="Path 25" d="M189.175,37.457c.279.262-2.149,3.37-6.805,8.846-.779.911-1.609,1.9-2.5,2.949a43.367,43.367,0,0,1-2.857,3.326c-1.411.8-1.456,2.966-3.18,3.717a24.873,24.873,0,0,0-3.506,4.071c-1.126,1.507-2.792,2.629-3.809,4.438-.633,2.146-3.554,2.347-4.1,4.775a46.719,46.719,0,0,1-4.394,5.1c-2.091,1.231-3.136,3.5-4.68,5.4-2.3,1.228-3.7,3.35-4.986,5.679a9.469,9.469,0,0,0-5.326,5.907c-1.86,1.993-4.108,3.673-5.775,6.05-.969,1.044-1.979,2.085-3.027,3.112-.524.514-1.047,1.027-1.6,1.52-.575.483-1.156.949-1.762,1.4a13.641,13.641,0,0,1-1.445,1.819,17.14,17.14,0,0,1-1.748,1.544,15.8,15.8,0,0,1-4.169,2.3,6.217,6.217,0,0,1-.877.867c-.316.265-.643.517-.976.758s-.684.466-1.03.68l-.531.32-.575.262c-.762.337-1.554.636-2.35.908a8.282,8.282,0,0,1-1.228.337l-1.252.269a11.453,11.453,0,0,0-1.231.316c-.4.126-.826.2-1.228.337-.82.231-1.629.537-2.455.8a12.407,12.407,0,0,1-5.142.531l-1.3.054-.65.034-.643-.007q-1.286-.015-2.585-.027a10.817,10.817,0,0,1-1.292-.071l-1.282-.119c-.854-.1-1.724-.16-2.564-.344-3.346-.884-6.587-1.949-10.121-2.03q-1.275-.24-2.554-.49c-.857-.167-1.69-.381-2.534-.6a27.049,27.049,0,0,1-4.935-1.721c-3.618-.126-6.832-1.643-10.029-3.231-3.394-.993-6.55-2.785-10.1-3.479-1.67-.66-3.4-1.163-5.122-1.7l-.65-.2-.922-.306-2.428-.85c-.806-.289-1.609-.585-2.391-.888l-1.149-.459-.279-.112c-.037,0-.014-.034,0-.058l.037-.071.078-.15.316-.592q1.933-3.734,3.846-7.434a34.771,34.771,0,0,0,2.078-5.016,21.122,21.122,0,0,1,2.282-4.884c.908-1.551,1.833-3.074,2.578-4.693a17.554,17.554,0,0,0,2.714-4.574,28.982,28.982,0,0,1,2.425-4.69c.867-1.527,1.867-2.962,2.84-4.4a29.694,29.694,0,0,0,2.724-4.431c.935-1.459,1.853-2.928,2.846-4.326a35.731,35.731,0,0,1,3.346-3.911,7.806,7.806,0,0,1,1.275-2.279,10.717,10.717,0,0,1,1.819-1.8c.677-.537,1.367-1.044,2.023-1.585.33-.265.643-.544.952-.826a8.879,8.879,0,0,0,.918-.871,17.146,17.146,0,0,0,2.013-1.507c.616-.551,1.292-1.051,1.911-1.6s1.241-1.1,1.884-1.622c.663-.49,1.34-.962,2.044-1.388a19.445,19.445,0,0,1,4.251-2.4c.367-.167.724-.354,1.092-.52s.741-.316,1.1-.483a14.134,14.134,0,0,0,2.088-1.187c.357-.167.731-.306,1.1-.449l1.1-.452c.728-.306,1.445-.619,2.166-.925a20.586,20.586,0,0,1,4.479-1.163,13.427,13.427,0,0,1,4.4-1.034,16.547,16.547,0,0,0,4.37-.6c1.435-.187,2.86-.323,4.271-.473l1.058-.1,1.047-.044c.7-.024,1.394-.037,2.085-.037a8.017,8.017,0,0,0,2.068.364,12.551,12.551,0,0,0,2.023-.014c1.333-.1,2.663-.384,3.972-.378,2.6.2,5.2-.473,7.631.432,1.231.122,2.442.326,3.632.5a14.655,14.655,0,0,0,3.547.194c2.35.041,4.4,2.006,6.727.864,2.211-.007,4.122,1.619,6.264.966a5.36,5.36,0,0,1,3,.15,24.217,24.217,0,0,0,2.785.847c1.847.347,3.622.663,5.305,1,15.161,3.061,23.694,5.435,23.591,5.951-.061.306-2.8.082-7.822-.605-2.513-.34-5.6-.758-9.213-1.292-3.618-.486-7.757-1.1-12.386-1.683-.925-.119-1.894-.078-2.867-.112a6.883,6.883,0,0,1-2.911-.6c-2-.282-4.139-.027-6.227-.68-2.255.718-4.37-.36-6.649-.6-1.143-.085-2.3-.262-3.472-.391a18.522,18.522,0,0,0-3.584-.044c-2.442.377-4.877-.51-7.431-.19a12.939,12.939,0,0,0-3.843-.367c-.646.02-1.3.082-1.952.167-.653.112-1.3.269-1.949.439a9.92,9.92,0,0,0-2-.119c-.333.007-.667.031-1,.061s-.663.105-1,.167c-1.323.248-2.653.534-4.006.7a10.617,10.617,0,0,0-4.142.245c-1.337.4-2.646.959-3.965,1.445A30.1,30.1,0,0,1,98.767,35.4c-.67.235-1.34.463-2.01.714-.333.126-.67.252-1,.388a5.929,5.929,0,0,0-.973.466,48.763,48.763,0,0,0-7.618,4.268c-.554.5-1.115.99-1.69,1.452-.554.507-1.109,1.013-1.69,1.483-.571.486-1.2.894-1.785,1.381s-1.217.915-1.87,1.337c-.262.286-.527.565-.8.84l-.779.857c-.524.571-1.068,1.126-1.619,1.68-.565.537-1.075,1.139-1.612,1.717s-1.058,1.183-1.575,1.782a40.95,40.95,0,0,1-2.877,3.877c-.983,1.286-1.979,2.588-2.9,3.962a36.91,36.91,0,0,1-2.952,4.03,13.537,13.537,0,0,0-2.34,4.509c-1.585,3.006-3.51,5.877-4.958,9.053-.884,1.5-1.721,3.044-2.53,4.608a48.082,48.082,0,0,0-2.217,4.822,16.5,16.5,0,0,0-2.789,4.6c-.173.418-.34.837-.5,1.262l-.231.626a1.106,1.106,0,0,0,.007.153.462.462,0,0,0,.163.36c0,.044.109.027.17.027h.156a.739.739,0,0,1,.109.017l.357.122.633.235c1.694.619,3.36,1.286,5.023,1.938,3.4,1.1,6.73,2.3,10.026,3.493,3.408.83,6.475,2.612,9.859,3.234a32.48,32.48,0,0,1,4.87,1.466c.8.286,1.585.592,2.384.813a16.67,16.67,0,0,0,2.442.517,70.345,70.345,0,0,1,9.5,2c.782.143,1.551.231,2.316.4l1.153.235a8.565,8.565,0,0,0,1.153.187,19.988,19.988,0,0,0,2.3.136c.19,0,.384-.007.571-.024s.377-.061.561-.1a9.927,9.927,0,0,0,1.112-.292,29.615,29.615,0,0,0,4.268-1.027,10.455,10.455,0,0,1,2.061-.493c.347-.051.714-.037,1.078-.065a6.073,6.073,0,0,1,1.132.031,8.853,8.853,0,0,1,.979-.422c.333-.122.673-.224,1-.371.663-.272,1.34-.5,2.017-.731l.507-.187.486-.235c.326-.153.643-.32.956-.493s.622-.36.915-.561a4.2,4.2,0,0,0,.83-.69,8.7,8.7,0,0,0,3.744-2.146c.534-.483,1.047-.983,1.564-1.473s1.013-1.017,1.558-1.466c.575-.425,1.143-.843,1.714-1.262.558-.435,1.105-.894,1.636-1.35a17.476,17.476,0,0,0,2.9-3.034c1.643-2.272,4.05-3.734,5.788-5.778,1.408-2.353,4.18-3.353,5.435-5.7,1.823-1.809,3.35-3.812,5.132-5.5.629-2.717,3.227-3.581,4.86-5.23,1.683-1.595,2.374-3.993,4.588-4.928.69-2.3,2.744-3.278,4.312-4.6,1.578-1.3,2.347-3.244,4.027-4.251.724-1.87,2.765-2.445,3.734-3.88,1.507-.949,2.272-2.462,3.414-3.513a15.04,15.04,0,0,1,3.095-3.119q1.469-1.454,2.748-2.727c5.152-5.033,8.111-7.638,8.38-7.383" transform="translate(98.633 63.829)"/>
    </g>
  </g>
</svg>
