<svg xmlns="http://www.w3.org/2000/svg" width="40" height="40" viewBox="0 0 40 40">
  <g id="Group_4000" data-name="Group 4000" transform="translate(-1417 -202)">
    <circle id="Ellipse_22" data-name="Ellipse 22" cx="20" cy="20" r="20" transform="translate(1417 202)" fill="#2d7174"/>
    <g id="noun-download-5949886" transform="translate(1425.5 209.7)">
      <g id="Group_3999" data-name="Group 3999" transform="translate(2.5 3.3)">
        <g id="Group_3998" data-name="Group 3998" transform="translate(4.155 0)">
          <g id="Group_3997" data-name="Group 3997">
            <path id="Path_3067" data-name="Path 3067" d="M30.2,9.352H28.6V4.008a.712.712,0,0,0-.708-.708H24.216a.712.712,0,0,0-.708.708V9.335h-1.6a.705.705,0,0,0-.506,1.2l4.147,4.3a.7.7,0,0,0,1.012,0l4.147-4.282A.7.7,0,0,0,30.2,9.352Z" transform="translate(-21.198 -3.3)" fill="#d5e0e0"/>
          </g>
        </g>
        <path id="Path_3068" data-name="Path 3068" d="M20.025,72.489H2.993a.464.464,0,0,1-.493-.438V68.038a.465.465,0,0,1,.493-.438H4.472a.464.464,0,0,1,.493.438V70.3H18.033V68.038a.465.465,0,0,1,.493-.438h1.479a.464.464,0,0,1,.493.438v4.012A.437.437,0,0,1,20.025,72.489Z" transform="translate(-2.5 -54.794)" fill="#d5e0e0"/>
      </g>
    </g>
  </g>
</svg>
