<svg xmlns="http://www.w3.org/2000/svg" width="131.399" height="40.011" viewBox="0 0 131.399 40.011">
  <g id="Group_4045" data-name="Group 4045" transform="translate(-179.601 -90)">
    <text id="LOGO" transform="translate(246 118)" fill="#08343e" font-size="20" font-family="Helvetica-Bold, Helvetica" font-weight="700" letter-spacing="0.1em"><tspan x="0" y="0">LOGO</tspan></text>
    <g id="noun-map-454545" transform="translate(172.801 83.2)">
      <g id="Group_381" data-name="Group 381" transform="translate(6.8 6.8)">
        <path id="Path_3042" data-name="Path 3042" d="M24.4,28.4,6.8,46.738V54.7a3.716,3.716,0,0,0,3.7,3.7H18.84L36.623,40.625Z" transform="translate(-6.8 -18.397)" fill="#08343e"/>
        <path id="Path_3043" data-name="Path 3043" d="M44.2,75.643H63.186a3.716,3.716,0,0,0,3.7-3.7v-3.89L59.343,60.5Z" transform="translate(-26.881 -35.632)" fill="#08343e"/>
        <path id="Path_3044" data-name="Path 3044" d="M10.5,6.8a3.716,3.716,0,0,0-3.7,3.7V24.4L23.749,6.8H10.5Z" transform="translate(-6.8 -6.8)" fill="#08343e"/>
        <path id="Path_3045" data-name="Path 3045" d="M70.22,33.937V10.5a3.716,3.716,0,0,0-3.7-3.7h-9.03L50.4,14.117Z" transform="translate(-30.209 -6.8)" fill="#c8cf1e"/>
      </g>
    </g>
  </g>
</svg>
