<svg xmlns="http://www.w3.org/2000/svg" width="816.713" height="574.044" viewBox="0 0 816.713 574.044">
  <g id="Group_4043" data-name="Group 4043" transform="translate(-202 -2647.824)">
    <text id="NRW" transform="translate(202 2860)" fill="#2d3337" font-size="18" font-family="Helvetica" letter-spacing="0.02em" opacity="0.608"><tspan x="0" y="0">NRW</tspan></text>
    <text id="Hessen" transform="translate(777 3190)" fill="#2d3337" font-size="18" font-family="Helvetica" letter-spacing="0.02em" opacity="0.608"><tspan x="0" y="0">Hessen</tspan></text>
    <text id="Niedersachen" transform="translate(792 2678)" fill="#2d3337" font-size="18" font-family="Helvetica" letter-spacing="0.02em" opacity="0.608"><tspan x="0" y="0">Niedersachen</tspan></text>
    <g id="Group_3968" data-name="Group 3968" transform="translate(207.346 2561.119)" opacity="0.137">
      <path id="Path_105" data-name="Path 105" d="M928.173,138l-26.811,80.3H870.817l-3.824-4.589-.008-16.06H832.579v57.53l14.53,18.126v23.126l26.751,18.225h25.252l-11.471-14.53v-6.883l56.592-19.313h57.137V218.3l-20.428-56.592L967.617,138Z" transform="translate(-195.86 -32.464)" fill="#2d7174"/>
      <path id="stripes3" d="M771.229,329H820.26v7.99l-5.44,8.07-9.942,42.062-38.238,5.353-7.648,7.648-21.413-9.942,2.294-16.825,17.589,9.177,3.824-25.237,9.942-7.648Z" transform="translate(-173.512 -77.395)" fill="#2d7174"/>
      <path id="Path_107" data-name="Path 107" d="M824.761,349.256l-4.5,6.25-10.029,41.253-43.725,8.128-28.927,56.877V481.14l6.883,7.87h6.418l6.582-15.3,3.059-.765,4.589,9.942-.479,6.118,8.126,29.061,6.162,2.447,9.9-16.213,10.707-31.355L794.936,454.6l-6.118-7.648,12.691-29.2h30.627V398.634l10.98-3.689L859.175,374.3l-4.537-4.971h-8.125Z" transform="translate(-173.512 -82.16)" fill="#2d7174"/>
      <path id="Path_108" data-name="Path 108" d="M853.171,416h12.155v8.961l10.788-4.373,35.451,17.5v6.876l11.2,11.569h6.317l4.39-6.118,25.613.174,8.8-7.822,13.765,16.825v8.5H970.332l15.906,55.742-14.531,36.708L950.294,548.3l-11.471,3.543-14.53-1.249L901.578,536.22l-11.317,7.5-14.148-7.5-9.177,9.789-9.942-.765-3.824,9.727-43.591-25.787,13.868-40.914-3.926-19.5-7.647-6.883,10.707-22.178h30.59Z" transform="translate(-190.45 -97.862)" fill="#2d7174"/>
      <path id="Path_109" data-name="Path 109" d="M875.467,591.222l-3.619,8.412,5.913,16.825,26.767,12.236,21.685,20.375L981,604.987l-16.825-10.706-13,2.294-17.589-.765-21.031-13.62-6.5,8.267-15.295-8.267-6.118,8.267Z" transform="translate(-205.098 -136.957)" fill="#2d7174"/>
      <path id="Path_110" data-name="Path 110" d="M721.1,534.209l9.942,3.987h8.36v-5.863h4.375l4.09,16.569,3.411,21.558h11.163l9.133-9.322L816.9,587.906l6.875,23.185,15.09,5.876v4.749l-45.121,20L814.4,678.912l4.589,3.824h7.294l-2.5,3.985L790.691,717.15l-8.795-2.3-19.458-.625-3.867-11.6H731.04L704.273,698.8l-8.412-19.884,9.942-28.3-30.59-9.177-7.693-16.7V593.589l49.755-27.1,6.883-10.707Z" transform="translate(-157.03 -125.229)" fill="#2d7174"/>
      <path id="Path_111" data-name="Path 111" d="M280.815,698.78v20.53l-12.236,5.472,32.12,28.3h8.578v7.486l25.837,16.222,6.118-11.471V748.489l-2.294-14.531,24.472-19.119,7.648,1.53,8.412-9.942,7.648-3.824V687.433h-5.334l-3.078-9.3-12.236-5.354H352.4L345.82,676.6l-17.972-11.046-12.618,12.576,9.177,12.236-4.589,6.118Z" transform="translate(-63.182 -156.568)" fill="#2d7174"/>
      <path id="stripe1" d="M516.1,543.277h25.627l33.128,6.875,9.375-6.875,5.708-3.212-36.919-35.541,5.564-3.462h13.771l3.054-21.413-5.353-6.118,2.294-13-50.091-7.26L484.4,446l-16.825,7.9v3.75l6.883,15.121,27.531,30.59,4.589,8.668Z" transform="translate(-109.996 -104.919)" fill="#2d7174"/>
      <path id="Path_113" data-name="Path 113" d="M323.462,556h13.357l2.32,13.154,19.5,3.671,14.432-8.412,11.25,8.412-2.5,11.281,2.5,5.05,2.614,13.495,7.648,15.295L409.88,621l13,9.3,6.118,16.7-30.59,6.529-4.085-10.625L368.7,639.784l-10,3.126-16.876-12.6,1.526-7.775-8.412-6.883,4.206-10.883-3.57-11.294V576.029l-18.99-10.852Z" transform="translate(-74.474 -130.796)" fill="#2d7174"/>
      <path id="Path_114" data-name="Path 114" d="M387.57,724.333l-19.991,15.083,3.74,12.236-.681,10.707L367.579,773.1l3.059,11.435H400.07l32.513,10.706h11.24l6.349-3.059,13.028,3.059L483.057,731V714.347l-4.589-21.582-8.412-10.707h-8.731L449.408,679l-15.295,3.059-16.825,6.118v22.178l-6.883,2.117L400.07,724.333Z" transform="translate(-86.471 -159.731)" fill="#2d7174"/>
      <path id="Path_115" data-name="Path 115" d="M508.876,591.177l4.1,24.409H478.6l7.334,15.359v9.177l-6.118,2.294-12.235-2.294v8.9l24.77,7.156h7.5l6.731,10.345,6.118,31.717V711.53L496.64,766.306,522.26,789.66l79.916,8v-18l14.53-14.118-3.058-16.825,13.766-13-6.93-13.561V659.026l-8.125-22.6-27.007,2.931-13-13.765-3.745-26L526.465,582Z" transform="translate(-109.996 -136.912)" fill="#2d7174"/>
      <path id="Path_116" data-name="Path 116" d="M559.64,548.735l29.779,12.3,6.469,7.648v10.683l5.767,16.848,5.353,4.589,29.826-3.059V568.679L685.27,544.36l7.391-10.86-4.589-42.826L703.4,458.729V450.6l-13.029,4.127L665.895,479.2l-62.71,1.53L597.067,505.2l-11.471.765L609.014,525.7l6.407,10.859.469,7.8-8.116,3.671-6.883,9.177Z" transform="translate(-131.653 -106.002)" fill="#2d7174"/>
      <path id="Path_117" data-name="Path 117" d="M391.4,541.256h53.375l7.5-8.922h28.127l3.751,8.922V551.71l3.606,11.876,3.824,2.906-9.177,9.942,5.353,14.029-4.589,6.62h-31.52L448.76,603.9l12.9,16.124-.625,4.716H448.76l-18.737-15.527-14.913-1.25-6.118-12.411,1.53-12.236-6.371-4.779,6.875-14.952-23.447-15.448Z" transform="translate(-91.176 -125.229)" fill="#2d7174"/>
      <path id="Path_118" data-name="Path 118" d="M43.332,560.685v19.377L41.457,596.3h10l13.036-5.941,5.353,3.059v14.772L62.2,637.772l26,29.061,22.943-18.354,3.059-9.942,26.012,3.059-5.363,6.883v8.412l18.354,5.353,15.761,4.588,7.5,8.412h17.5l6.652,7.648,18.354-4.588,3.059-21.413,35.944-.765,3.824-6.118-5.953-4.943-.93-6.529,16.06-13.765v-7.648l-8.412-9.942L264.6,601l6.38-7.188L262.723,585l1.372-12.236-15.748-12.083,3.512-13.154,5.864-5.5H277.1l4.586,13.917,13,.765,6.883-6.883-7.593-7.8,12.181-8.844L303.1,520h-6.622l-18.615,9.177-26,5.881-5.353,3.3-6.284,22.331Z" transform="translate(-9.753 -122.327)" fill="#2d7174"/>
      <path id="stripes3-2" data-name="stripes3" d="M755.934,205l-8.412,9.177,8.412,29.471L737.579,264.9v10.834l11.471,11.86,10.164,27.727,2.837,5.157,3.824-5.353V294.486l52,1.52v-5.687l-13.766-15.726.765-60.416-12.236,6.136-27.531-6.9Z" transform="translate(-173.512 -48.225)" fill="#2d7174"/>
      <path id="stripe1-2" data-name="stripe1" d="M695.189,205.53l-22.943,26.49-32.847-15L627.891,191H593.143v35.187l46.256,5.834,12.963,4.1-8.2,13.4v5.418l5.857,4.506v15.912L639.4,282.025l10.623,26.252L639.4,332.1l10.623,11.6,47.461,10.2,6.118-19.781,5.354-.417,10.706,11.785,3.824-26-12.208-32.037-13.794-10.789L699.778,256l16.06-15.3-4.56-22.855Z" transform="translate(-139.534 -44.932)" fill="#2d7174"/>
      <path id="Path_121" data-name="Path 121" d="M287.462,343.59l-6.883-10.707h33.6l16.1-11.471h10.564l2.437,13.766,21.314-9.942,3.75-9.94,26.175,11.47,6.883-3.824,34.448,2.294L444.237,313l30.791,12.236v7.99l-29.262,35.6-5.741,2.294-25.614,25.237-30.59-9.942-13-11.471-35.943.765-14.86,6.883-6.553-9.177,9.053-2.294,3.948-6.883-2.7-8.412H314.6L288.227,365Z" transform="translate(-66.005 -73.631)" fill="#2d7174"/>
      <path id="Path_122" data-name="Path 122" d="M648.579,174.649,692.935,141,722,171.59v21.167h-5.353l-7.648-5.107-23.707,26.775-25.237-9.95-11.471-19.218Z" transform="translate(-152.575 -33.169)" fill="#2d7174"/>
      <path id="Path_123" data-name="Path 123" d="M572.763,243l38.571,4.585,13.932,3.441-6.248,9.892v10.756l6.248,4.244v8.756l-12.4,7.265,12.4,27.315L612.1,347.008H558.179l-6.5,7.648H506.509l24.909-27.894,13.383,6.481,26-52Z" transform="translate(-119.153 -57.166)" fill="#2d7174"/>
      <path id="Path_125" data-name="Path 125" d="M109.172,272.481c-.12-1.531-14.65-35.18-14.65-35.18L80.756,225.065l7.164-12.992-7.164-9.584-9.177-42.428,6.883-9.942H95.421l7.513,16.06.4,21.413,5.834,2.4,17.469-29.926,17.95-9.942,6.523,2.294,19.119-16.06,6.883,9.177,3.777,9.872,6.165,2.365,6.883-5.353L273.474,131l32.884,23.707,30.59,3.824,3.824,6.118,12.236,3.059v34.032h19.516v10.332l31.669,4.583,13.055,22.5,16.06,9.615,32.14,2.053-23.335,47.087-11.1-7.078.765-10.707-41.3-16.06-9.177,13-27.949-4.587-9.524,5.352-28.3-12.236-2.294,2.313v10l-14.53,6.806-7.026-12.235H272.934l-10,9.94-26.167,1.529-11.471,3.059L231.413,300V320.83l-23.707,2.124-18.528,16.825-.417-67.3Z" transform="translate(-16.838 -30.816)" fill="#2d7174"/>
      <path id="Path_126" data-name="Path 126" d="M484.64,395,461.7,415.648,455.579,434h9.177l11.853-5.493,99.174,17.139L579.951,434l7.166-10.324v-8.03l-5.353-8.412,1.52-5.353L549.115,395Z" transform="translate(-107.172 -92.92)" fill="#2d7174"/>
      <path id="stripe1-3" data-name="stripe1" d="M89.553,329v45.885l13.334,11.471-6.667,9.177-70,17.449H7.047v30.681L.579,453.655l8.968,16.9V484.5l22.293,25H222.9l10.834-25,62.809-16.7,6.118,16.442,39,4.422,13-13.6,32.83,3.6-29.771-32.5-9.177-20L341.66,422V404.8l-29.724-9.264-13.484-9.177H271.233l-19.422,9.177-9.569-16.06V364.561l-15.179,10.324H197.894l-30.836,20.648L164.19,329Z" transform="translate(-0.135 -77.395)" fill="#2d7174"/>
      <path id="stripe1-4" data-name="stripe1" d="M586.605,389h51.256l10.623,7.941,45.628,12.707,20.835,9.264-5.209,8.185-15.626,6.268-23.4,25.247-61.945-.02-3.059-9.942,12.236-4.414V433.366l7.834-6.268-1.666-17.45-.834-16.06Z" transform="translate(-137.994 -91.51)" fill="#2d7174"/>
      <path id="Path_124" data-name="Path 124" d="M449.074,188.25l4.388-2.457,21.864,3.982,20.963,14.53h6.956l5.417-18.512h5.418v9.257l39.586-5.275V258.22L533.043,255.8l-15.724-3.334L501.369,235.8l-4.375-10.834L468.757,219.6l1.53-10.706-5.353-3.824-14.53,4.589-3.824-4.589Z" transform="translate(-105.055 -43.707)" fill="#2d7174"/>
    </g>
    <path id="Path_3057" data-name="Path 3057" d="M38.476,51.046l.386-.4C39.411,50.09,52.19,36.9,52.19,29.5a13.715,13.715,0,0,0-27.43,0c0,7.413,12.779,20.594,13.323,21.154ZM32.386,29.5a6.089,6.089,0,1,1,6.089,6.089A6.094,6.094,0,0,1,32.386,29.5Z" transform="translate(295.857 2813.967)" fill="#2d7174"/>
    <path id="Path_3058" data-name="Path 3058" d="M38.476,51.046l.386-.4C39.411,50.09,52.19,36.9,52.19,29.5a13.715,13.715,0,0,0-27.43,0c0,7.413,12.779,20.594,13.323,21.154ZM32.386,29.5a6.089,6.089,0,1,1,6.089,6.089A6.094,6.094,0,0,1,32.386,29.5Z" transform="translate(633.037 3090.047)" fill="#2d7174"/>
    <text id="Paderborn" transform="translate(358 2859)" fill="#2d3337" font-size="18" font-family="Helvetica-Bold, Helvetica" font-weight="700" letter-spacing="0.02em"><tspan x="0" y="0">Paderborn</tspan></text>
    <text id="Kassel" transform="translate(695.6 3135.321)" fill="#2d3337" font-size="18" font-family="Helvetica-Bold, Helvetica" font-weight="700" letter-spacing="0.02em"><tspan x="0" y="0">Kassel</tspan></text>
    <path id="Path_3060" data-name="Path 3060" d="M-17241.047-9260.308s10.939-1.065-44.262,14-253.773-83.436-271.375-97.158-27.623-91.806-68.07-139.933-97.184-102.774-60.184-149.606,155.074-157.646,187.836-159.663,155.9-19.917,219.1,9.749,82.6,40.767,123.99,78.053,109.279,76.043,106.5,102.743,6.639,100.436-16.918,118.725-92.52,21.778-107.1,45.939,7.127,43.607-16.266,101.811S-17241.047-9260.308-17241.047-9260.308Z" transform="translate(17965.66 12449.677)" fill="none" stroke="#c8cf1e" stroke-width="4"/>
    <path id="Path_3059" data-name="Path 3059" d="M38.476,51.046l.386-.4C39.411,50.09,52.19,36.9,52.19,29.5a13.715,13.715,0,0,0-27.43,0c0,7.413,12.779,20.594,13.323,21.154ZM32.386,29.5a6.089,6.089,0,1,1,6.089,6.089A6.094,6.094,0,0,1,32.386,29.5Z" transform="translate(868.15 2875.714)" fill="#2d7174"/>
    <text id="Göttingen" transform="translate(930.713 2920.988)" fill="#2d3337" font-size="18" font-family="Helvetica-Bold, Helvetica" font-weight="700" letter-spacing="0.02em"><tspan x="0" y="0">Göttingen</tspan></text>
  </g>
</svg>
