<svg xmlns="http://www.w3.org/2000/svg" width="834.719" height="680.421" viewBox="0 0 834.719 680.421">
  <g id="Group_3968" data-name="Group 3968" transform="translate(-344.797 -49.661) rotate(-4)">
    <path id="stripe1" d="M592.829,697.1h66.149l85.511,17.747,24.2-17.747,14.734-8.291-95.3-91.739,14.361-8.936h35.547l7.882-55.273L732.1,517.064l5.922-33.558-129.3-18.739L511.008,446l-43.428,20.38v9.68l17.766,39.031,71.065,78.961,11.844,22.373Z" transform="translate(354.111 -73.289)" fill="#d5e0e0"/>
    <path id="Path_117" data-name="Path 117" d="M397.45,555.364H535.225l19.361-23.03h72.6l9.681,23.03v26.986L646.177,613l9.87,7.5-23.688,25.662,13.818,36.212-11.844,17.087h-81.36l-7.471,17.6,33.286,41.62-1.614,12.174H545.5l-48.364-40.079-38.494-3.227-15.792-32.037,3.948-31.585L430.354,651.6,448.1,613l-60.522-39.876Z" transform="translate(276.045 7.408)" fill="#d5e0e0"/>
    <path id="Path_121" data-name="Path 121" d="M298.346,391.961l-17.767-27.637H367.32l41.571-29.61h27.267l6.292,35.532,55.018-25.662,9.678-25.658,67.563,29.606,17.766-9.87,88.918,5.922L703.02,313l79.48,31.584v20.624l-75.532,91.9-14.819,5.921-66.116,65.143-78.961-25.662L513.514,472.9l-92.779,1.974-38.357,17.767-16.916-23.689,23.369-5.922,10.19-17.766-6.962-21.714H368.394l-68.075,23.688Z" transform="translate(171.969 -196.475)" fill="#d5e0e0"/>
    <path id="Path_126" data-name="Path 126" d="M530.592,395l-59.221,53.3-15.792,47.377h23.688l30.6-14.18,255.993,44.241,10.757-30.061,18.5-26.649V448.3l-13.818-21.714,3.924-13.818L697.019,395Z" transform="translate(342.423 -119.523)" fill="#d5e0e0"/>
    <path id="stripe1-2" data-name="stripe1" d="M334.984,670.217l166.554,38.625,162.127-43.1,15.792,42.441,114.64,2.469,19.593-26.157,84.743,9.29-76.847-83.9L797.9,558.257,780.132,547.5V503.109L703.406,479.2,668.6,455.507H598.342L548.21,479.2l-24.7-41.455V399.247L484.328,425.9H409.037l-79.595,53.3Z" transform="translate(-0.579 -159.345)" fill="#d5e0e0"/>
    <text id="LK_Göttingen" data-name="LK Göttingen" transform="matrix(0.998, 0.07, -0.07, 0.998, 888.774, 462.882)" fill="#2d3337" font-size="18" font-family="Helvetica" letter-spacing="0.02em"><tspan x="0" y="0">LK Göttingen</tspan></text>
    <text id="LK_Northeim" data-name="LK Northeim" transform="matrix(0.998, 0.07, -0.07, 0.998, 917.715, 329.987)" fill="#2d3337" font-size="18" font-family="Helvetica" letter-spacing="0.02em"><tspan x="0" y="0">LK Northeim</tspan></text>
    <text id="LK_Holzminden_" data-name="LK Holzminden " transform="matrix(0.998, 0.07, -0.07, 0.998, 652.873, 221.085)" fill="#2d3337" font-size="18" font-family="Helvetica" letter-spacing="0.02em"><tspan x="0" y="0">LK Holzminden </tspan></text>
    <text id="LK_Kassel" data-name="LK Kassel" transform="matrix(0.998, 0.07, -0.07, 0.998, 767.064, 629.897)" fill="#2d3337" font-size="18" font-family="Helvetica" letter-spacing="0.02em"><tspan x="0" y="0">LK Kassel</tspan></text>
    <text id="LK_Höxter" data-name="LK Höxter" transform="matrix(0.998, 0.07, -0.07, 0.998, 419.964, 423.551)" fill="#2d3337" font-size="18" font-family="Helvetica" letter-spacing="0.02em"><tspan x="0" y="0">LK Höxter</tspan></text>
  </g>
</svg>
