<svg xmlns="http://www.w3.org/2000/svg" width="212" height="52.572" viewBox="0 0 212 52.572">
  <g id="Group_4044" data-name="Group 4044" transform="translate(-278 -511.439)">
    <text id="LOGO" transform="translate(369 551)" fill="#fff" font-size="37" font-family="Helvetica-Bold, Helvetica" font-weight="700" letter-spacing="0.1em"><tspan x="0" y="0">LOGO</tspan></text>
    <g id="noun-map-454545" transform="translate(278 511.439)">
      <g id="Group_381" data-name="Group 381" transform="translate(0 0)">
        <path id="Path_3042" data-name="Path 3042" d="M29.922,28.4,6.8,52.5V62.961a4.882,4.882,0,0,0,4.868,4.868H22.62L45.985,44.464Z" transform="translate(-6.8 -15.257)" fill="#fff"/>
        <path id="Path_3043" data-name="Path 3043" d="M44.2,80.4H69.147a4.882,4.882,0,0,0,4.868-4.868V70.418L64.1,60.5Z" transform="translate(-21.443 -27.825)" fill="#fff"/>
        <path id="Path_3044" data-name="Path 3044" d="M11.668,6.8A4.882,4.882,0,0,0,6.8,11.668V29.922L29.07,6.8Z" transform="translate(-6.8 -6.8)" fill="#fff"/>
        <path id="Path_3045" data-name="Path 3045" d="M76.442,42.456V11.668A4.882,4.882,0,0,0,71.575,6.8H59.71L50.4,16.414Z" transform="translate(-23.871 -6.8)" fill="#c8cf1e"/>
      </g>
    </g>
  </g>
</svg>
