<svg xmlns="http://www.w3.org/2000/svg" width="57.005" height="85.606" viewBox="0 0 57.005 85.606">
  <g id="noun-innovation-6835301" transform="translate(0.5 0.5)">
    <path id="Path_3078" data-name="Path 3078" d="M49.819,40.486l1.444-.834a1.281,1.281,0,0,1,1.282,2.218L49.819,43.44v4.594L53.164,46.1a1.276,1.276,0,0,1,1.27,2.214l-4.614,2.665v3.752a8.159,8.159,0,0,0,2.372-.749,8.3,8.3,0,0,0,2.905-2.4c3.959-5.18-.956-13.159-4.907-19.572-.582-.944-1.143-1.855-1.656-2.722-.513.867-1.074,1.782-1.656,2.722-3.967,6.437-8.9,14.449-4.858,19.633A8.3,8.3,0,0,0,44.916,54a8.184,8.184,0,0,0,2.336.728V50.976l-4.614-2.665a1.276,1.276,0,1,1,1.27-2.214l3.345,1.929V43.432l-2.726-1.571a1.281,1.281,0,1,1,1.282-2.218l1.44.834v-4.39a1.282,1.282,0,1,1,2.563,0l0,4.4ZM62.364,79.722a2.653,2.653,0,0,0,1.7-.769l0,0a2.629,2.629,0,0,0,.773-1.864c0-1.786,0-2.022,0-2.23.008-1.278.012-1.88.012-2.234h0c0-6.506,2.616-10.058,5.318-13.716,3.133-4.248,6.368-8.63,6.368-17.4a28,28,0,0,0-56.005,0c0,8.76,3.247,13.175,6.388,17.448,2.706,3.674,5.318,7.231,5.306,13.667q0,1.257,0,2.515v1.945a2.631,2.631,0,0,0,.777,1.864l0,0a2.623,2.623,0,0,0,1.7.769v3.056h-.72a1.282,1.282,0,1,0,0,2.563h.72v3.678h-.72a1.282,1.282,0,0,0,0,2.563h1.164c.016.012.028.024.045.037l7.776,6.14a1.28,1.28,0,0,0,.887.354H53.2V98.1a1.254,1.254,0,0,0,.789-.277l7.776-6.136a1.331,1.331,0,0,0,.151-.114h1.156a1.282,1.282,0,0,0,0-2.563h-.72V85.334h.72a1.282,1.282,0,0,0,0-2.563h-.72l0-3.048Zm-25.085,0H59.8v3.052H37.279Zm0,5.615H59.8V89.02H37.279Zm2,6.242H57.8l-5.025,3.967H44.305ZM66.526,23.522a25.36,25.36,0,0,1,7.45,17.989c0,7.939-2.974,11.966-5.859,15.877-2.954,4-5.819,7.886-5.819,15.238h0v2.222c-.008,1.282-.012,1.941-.012,2.238a.088.088,0,0,1-.02.057.081.081,0,0,1-.057.02H34.878a.081.081,0,0,1-.057-.02.088.088,0,0,1-.02-.057c0-.891,0-.492-.008-1.945q-.006-1.257,0-2.515c.016-7.279-2.844-11.161-5.8-15.177C26.1,53.515,23.1,49.442,23.1,41.515A25.438,25.438,0,0,1,66.527,23.522ZM57.134,53.144a10.814,10.814,0,0,1-17.126.085c-5.135-6.588.317-15.437,4.7-22.55,1.013-1.644,1.961-3.186,2.7-4.582a1.28,1.28,0,0,1,2.266,0c.736,1.392,1.685,2.934,2.7,4.578,4.358,7.084,9.786,15.893,4.765,22.468Z" transform="translate(-20.535 -13.504)" fill="#d5e0e0" stroke="#e3ebdf" stroke-width="1" fill-rule="evenodd"/>
  </g>
</svg>
