<svg xmlns="http://www.w3.org/2000/svg" width="74.848" height="55.035" viewBox="0 0 74.848 55.035">
  <g id="Group_4011" data-name="Group 4011" transform="translate(-0.3 -13.5)">
    <path id="Path_3076" data-name="Path 3076" d="M73.9,57.829a.769.769,0,0,0,.75-.75V42.819a.573.573,0,0,0-.15-.375L63.691,25.107a.765.765,0,0,0-.6-.375H42.977V14.75a.709.709,0,0,0-.75-.75H1.55a.709.709,0,0,0-.75.75V56.628a.709.709,0,0,0,.75.75H7.7a11.241,11.241,0,0,0-.15,1.651,8.925,8.925,0,0,0,4.053,7.5H1.55a.75.75,0,0,0,0,1.5H73.9a.75.75,0,0,0,0-1.5H64.742a9.006,9.006,0,0,0,4.053-7.5c0-.45-.075-.826-.075-1.276l5.178.075ZM2.3,55.877V15.5H41.476v9.981h0V55.877H24.966a9.061,9.061,0,0,0-8.405-5.854,8.954,8.954,0,0,0-8.405,5.854Zm6.754,3.152a7.5,7.5,0,1,1,7.5,7.5A7.527,7.527,0,0,1,9.055,59.029Zm12.458,7.5a9.006,9.006,0,0,0,4.053-7.5,12.272,12.272,0,0,0-.15-1.651H42.227l8.706.15a10.171,10.171,0,0,0-.15,1.5,8.925,8.925,0,0,0,4.053,7.5Zm38.275,0a7.5,7.5,0,1,1,7.5-7.5A7.527,7.527,0,0,1,59.788,66.534ZM73.147,56.328l-4.8-.075a8.991,8.991,0,0,0-17.036-.225l-8.33-.075V26.233H62.565L73.072,43.044V56.328Z" fill="#d5e0e0" stroke="#e3ebdf" stroke-width="1"/>
    <path id="Path_3077" data-name="Path 3077" d="M60.826,36.3H70.882a.6.6,0,1,0,0-1.2H60.3a.592.592,0,0,0-.6.6V47.408a.592.592,0,0,0,.6.6h23.34a.592.592,0,0,0,.6-.6.552.552,0,0,0-.6-.6H60.826Z" transform="translate(-11.696 -5.265)" fill="#d5e0e0" stroke="#e3ebdf" stroke-width="1"/>
  </g>
</svg>
