<svg xmlns="http://www.w3.org/2000/svg" width="69.23" height="65.191" viewBox="0 0 69.23 65.191">
  <g id="Group_3977" data-name="Group 3977" transform="translate(2.116 1.559)">
    <path id="Path_21" data-name="Path 21" d="M42.074,16.094c.085,0,.167.551.243,1.557.012.168.024.348.038.541a3.848,3.848,0,0,1,.036.614c-.112.217.208.445.035.686a2.232,2.232,0,0,0,.033.754c.04.262-.071.535.033.819.22.283-.243.577.031.881a4.056,4.056,0,0,1,.028.944c-.167.323,0,.657.028,1a1.15,1.15,0,0,0,.026,1.055.868.868,0,0,0,.025,1.109,4,4,0,0,0,.022,1.159,7.239,7.239,0,0,1,.022,1.206,1.589,1.589,0,0,1,.018,1.252,1.9,1.9,0,0,1,.018,1.292c-.111.439.174.883.015,1.334-.012.449.046.906.014,1.369a2.526,2.526,0,0,0,.01,1.4,4.421,4.421,0,0,1,.008,1.437,2.277,2.277,0,0,1,.007,1.465,8.884,8.884,0,0,0,0,1.492,13.134,13.134,0,0,1,0,1.516,4.14,4.14,0,0,0,0,1.516,8.953,8.953,0,0,1,0,1.491c-.2.494.064.982-.007,1.465a7.952,7.952,0,0,0-.008,1.437,5.434,5.434,0,0,1-.01,1.4c.3.462-.079.919-.014,1.369A6.352,6.352,0,0,0,42.71,51c.057.438-.141.869-.018,1.293a5.714,5.714,0,0,1-.018,1.251c.151.409-.127.811-.022,1.206,0,.394.01.781-.022,1.159-.239.378-.041.748-.025,1.108-.025.362.135.713-.026,1.056a2.955,2.955,0,0,0-.028,1c.035.324-.346.639-.028.943.056.3-.243.6-.031.882.2.284-.025.557-.033.819s-.021.514-.033.754a12.317,12.317,0,0,1-.351,3.4c-.142,0-.274-1.528-.384-4.152-.012-.262-.178-.535-.032-.819a2.706,2.706,0,0,1-.031-.882c-.22-.3-.041-.619-.03-.943a4.267,4.267,0,0,0-.028-1c-.127-.343.064-.694-.026-1.056a1.629,1.629,0,0,0-.025-1.108,3.545,3.545,0,0,0-.022-1.159,1.756,1.756,0,0,0-.022-1.206c-.075-.409.031-.826-.02-1.251.04-.424-.051-.856-.017-1.293a2.844,2.844,0,0,1-.015-1.333,9.46,9.46,0,0,1-.013-1.369,10.964,10.964,0,0,1-.011-1.4c-.042-.474.217-.953-.008-1.437-.029-.483.035-.972-.006-1.465a8.2,8.2,0,0,0,0-1.491,2.564,2.564,0,0,0,0-1.516,8,8,0,0,1,0-1.516c-.022-.5-.011-1,0-1.492-.065-.492.1-.981.006-1.465s.1-.963.008-1.437a3.787,3.787,0,0,1,.011-1.4c0-.462.2-.919.013-1.369-.042-.451-.295-.895.015-1.334-.078-.438.149-.869.017-1.292.227-.425.012-.842.02-1.252a3.464,3.464,0,0,0,.022-1.206,6.191,6.191,0,0,1,.022-1.159c-.13-.378.17-.748.025-1.109.03-.36-.019-.713.026-1.055-.3-.343,0-.677.028-1,.045-.324-.2-.639.03-.944-.231-.3-.031-.6.031-.881s-.1-.558.032-.819c-.163-.263.09-.515.034-.754.108-.24.006-.469.035-.686a1.326,1.326,0,0,1,.036-.614c.014-.193.025-.372.038-.541.075-1.006.157-1.557.242-1.557" transform="translate(-9.579 -3.734)" fill="#d5e0e0" stroke="#e3ebdf" stroke-linecap="round" stroke-width="3"/>
    <path id="Path_22" data-name="Path 22" d="M12.9,1.9c.062-.059.544.333,1.371,1.108.136.131.282.271.438.419a4.542,4.542,0,0,1,.495.482c.082.256.492.229.545.545a2.768,2.768,0,0,0,.594.6c.227.193.35.495.64.662.378.09.253.644.686.716a5.006,5.006,0,0,1,.727.766c.118.382.491.55.769.816a1.409,1.409,0,0,0,.812.856,1.038,1.038,0,0,0,.856.888,4.31,4.31,0,0,0,.91.9c.158.149.329.283.5.425.083.071.164.145.244.22s.161.148.236.23a2.234,2.234,0,0,1,.317.134,1.66,1.66,0,0,1,.28.171,2.467,2.467,0,0,1,.467.475,2.923,2.923,0,0,1,1.173.556.882.882,0,0,0,.145.078.718.718,0,0,0,.159.039c.108.016.218.025.329.031a1.627,1.627,0,0,1,.66.082,9.012,9.012,0,0,0,1.4-.088,2.448,2.448,0,0,0,1.471-.314c.243-.087.486-.179.735-.264a4.005,4.005,0,0,1,.776-.175,2.9,2.9,0,0,1,1.543-.508,10.357,10.357,0,0,0,1.571-.548c.135-.038.267-.087.4-.138l.2-.081.094-.041.01-.01a.073.073,0,0,1,.035-.026.2.2,0,0,1,.031,0c.014,0,.039.008.038-.014a.63.63,0,0,0-.045-.263l-.015-.037-.028-.056c-.031-.062-.065-.124-.1-.184a2.791,2.791,0,0,0-.239-.35,2.684,2.684,0,0,1-.394-.73,4.015,4.015,0,0,0-.346-.745c-.078-.578-.571-.922-.772-1.415a7.418,7.418,0,0,1-.376-.7,2.83,2.83,0,0,0-.446-.636c-.164-.2-.323-.4-.473-.6a4.5,4.5,0,0,1-.421-.619.993.993,0,0,1-.544-.494c-.065-.1-.125-.21-.193-.312a1.2,1.2,0,0,0-.108-.144.879.879,0,0,0-.137-.114,1.51,1.51,0,0,0-.227-.277A1.9,1.9,0,0,0,29.4,3l-.29-.193a2.263,2.263,0,0,1-.284-.19c-.4-.205-.711-.585-1.167-.659a4.255,4.255,0,0,0-.621-.217,2.036,2.036,0,0,1-.608-.232,1.227,1.227,0,0,1-.629-.137,1.534,1.534,0,0,0-.624-.131l-1.242-.132a.835.835,0,0,0-.3-.121,1.235,1.235,0,0,0-.306,0c-.2.022-.4.067-.6.081a3.8,3.8,0,0,1-1.16.022c-.189,0-.378-.018-.562-.019a1.536,1.536,0,0,0-.541.079c-.352.065-.743-.27-1.042.084-.327.092-.692-.157-.976.1-.285.236-.616.062-.907.1l-.836.1c-2.394.3-3.776.478-3.8.346-.013-.069.394-.219,1.163-.434s1.9-.492,3.357-.772c.289-.058.571-.268.909-.168a3.213,3.213,0,0,1,.985-.161c.316-.259.691-.125,1.058-.144.183-.023.371-.025.559-.036a2.479,2.479,0,0,0,.574-.081c.382-.159.8.025,1.2-.077a2,2,0,0,0,.629.087,2.309,2.309,0,0,0,.32-.032c.108-.015.218-.033.329-.058a6.841,6.841,0,0,0,1.346.1A1.411,1.411,0,0,0,26.011.3c.233.032.479.03.726.045a3.551,3.551,0,0,1,.714.2c.23.1.464.2.706.276a9.541,9.541,0,0,1,1.374.733c.124.055.246.112.364.175a3.58,3.58,0,0,1,.334.225,2.279,2.279,0,0,1,.306.264,3.062,3.062,0,0,1,.259.316c.055.04.11.08.164.123s.1.089.149.136c.1.094.19.191.284.29.185.2.343.42.525.624a4,4,0,0,1,.526.626c.151.228.293.462.46.68a4.314,4.314,0,0,1,.395.728,1.666,1.666,0,0,0,.489.671c.3.467.518.985.813,1.462.122.253.233.511.357.764s.259.5.409.745a1.654,1.654,0,0,0,.091.429q.036.1.081.2l.064.133.076.151c.207.4.466.821.733,1.286l.046.086c.006.013.02.03.02.041l-.045.019-.181.072-.372.145c-.253.1-.511.187-.77.276l-.194.067-.1.033-.2.062-.406.119c-.525.21-1.059.381-1.59.546-.508.24-1.081.263-1.581.508a2.812,2.812,0,0,1-.792.232,3.791,3.791,0,0,0-.793.21,3.955,3.955,0,0,1-1.612.319,2.338,2.338,0,0,1-.415.019c-.141,0-.275,0-.415-.012a2.669,2.669,0,0,0-.833.066,8.574,8.574,0,0,1-.858.029,1.622,1.622,0,0,1-.417-.1.9.9,0,0,1-.193-.1,1.179,1.179,0,0,1-.169-.155,1.468,1.468,0,0,1-.389-.133c-.12-.065-.235-.137-.35-.207s-.217-.151-.331-.214a2.1,2.1,0,0,0-.356-.163,1.713,1.713,0,0,0-.563-.509c-.1-.065-.213-.124-.319-.187a1.935,1.935,0,0,1-.293-.214l-.247-.259c-.08-.088-.156-.175-.237-.258a3.173,3.173,0,0,0-.525-.444c-.4-.24-.584-.675-.907-.958-.386-.224-.455-.732-.832-.935-.252-.319-.554-.581-.778-.9-.484-.082-.506-.565-.728-.854s-.628-.4-.684-.806c-.4-.1-.47-.479-.637-.757s-.489-.4-.59-.7c-.317-.108-.321-.485-.542-.647-.1-.27-.349-.391-.492-.589a1.622,1.622,0,0,1-.44-.53c-.136-.167-.265-.323-.383-.469C13.2,2.459,12.836,1.955,12.9,1.9" transform="translate(-2.991 0)" fill="#d5e0e0" stroke="#e3ebdf" stroke-linecap="round" stroke-width="3"/>
    <path id="Path_23" data-name="Path 23" d="M64.624,7.256c.062.058-.3.563-1.015,1.438-.118.147-.247.3-.383.47a4.534,4.534,0,0,1-.44.531c-.247.1-.182.509-.491.59a2.73,2.73,0,0,0-.543.647c-.167.245-.455.4-.59.7-.05.382-.614.319-.637.757a5.145,5.145,0,0,1-.684.806c-.367.159-.493.549-.729.855a1.454,1.454,0,0,0-.777.9,1.085,1.085,0,0,0-.832.935,5.988,5.988,0,0,0-.906.958c-.151.167-.307.337-.472.5-.082.082-.164.164-.253.241a3.424,3.424,0,0,1-.283.218,1.712,1.712,0,0,1-.21.314,1.99,1.99,0,0,1-.273.255,2.019,2.019,0,0,1-.688.34A2.043,2.043,0,0,1,53,19.43a3.08,3.08,0,0,0-.4.1c-.132.04-.263.094-.4.142a1.55,1.55,0,0,1-.833.084,7.11,7.11,0,0,1-1.658-.072,4.307,4.307,0,0,0-1.61-.319c-.271-.044-.545-.085-.81-.154a3.179,3.179,0,0,1-.774-.288,2.8,2.8,0,0,1-1.581-.508,11.994,11.994,0,0,0-1.588-.548c-.13-.054-.263-.1-.4-.14l-.2-.061-.1-.029-.188-.06c-.255-.083-.515-.168-.767-.259-.127-.046-.251-.094-.372-.143l-.176-.073-.042-.018-.01,0,.006-.012.012-.021.049-.086c.249-.453.48-.872.682-1.282l.138-.293c.031-.064.059-.13.085-.2a3.391,3.391,0,0,0,.132-.409,2.419,2.419,0,0,1,.351-.773,5.615,5.615,0,0,0,.415-.736c.433-.4.473-1.014.813-1.461a7.924,7.924,0,0,1,.458-.691,3.247,3.247,0,0,0,.425-.706c.144-.235.286-.471.442-.694a4.216,4.216,0,0,1,.545-.612,1.08,1.08,0,0,1,.475-.667c.113-.081.231-.156.34-.237.055-.039.107-.083.157-.127a1.184,1.184,0,0,0,.144-.14,2.116,2.116,0,0,0,.333-.231c.1-.087.206-.168.3-.258s.2-.18.3-.266a3.164,3.164,0,0,1,.328-.223,2.513,2.513,0,0,1,.687-.376L48.88,6.5c.06-.025.119-.05.177-.077a1.6,1.6,0,0,0,.329-.2c.237-.092.466-.2.7-.3a2.447,2.447,0,0,1,.72-.174,1.557,1.557,0,0,1,.7-.167,1.867,1.867,0,0,0,.7-.088,8.582,8.582,0,0,1,1.345-.1.955.955,0,0,0,.329.088,1.3,1.3,0,0,0,.319,0c.212-.021.422-.083.629-.084.411.039.824-.115,1.2.076.194.023.385.065.572.1a1.615,1.615,0,0,0,.56.022c.372,0,.68.42,1.058.144.351-.018.639.327.985.161s.62.111.91.167.568.111.832.167A13.953,13.953,0,0,1,64.63,7.273c-.015.071-.448.056-1.24-.032s-1.945-.243-3.4-.412c-.292-.036-.617.085-.908-.1a3.816,3.816,0,0,1-.977-.1c-.36.18-.684-.044-1.041-.084-.178-.01-.359-.042-.541-.065a2.086,2.086,0,0,0-.561.006c-.383.1-.761-.1-1.16-.021a1.513,1.513,0,0,0-.6-.084,2.289,2.289,0,0,0-.3.038,2.731,2.731,0,0,0-.3.091,3.249,3.249,0,0,0-1.241.134,1.17,1.17,0,0,0-.647.008c-.205.069-.4.171-.6.259a3.055,3.055,0,0,1-.615.208,3.142,3.142,0,0,0-.611.24,7.278,7.278,0,0,0-1.164.658c-.08.084-.162.163-.248.238s-.165.161-.253.233-.184.137-.276.209a2.518,2.518,0,0,1-.3.191l-.236.267c-.08.089-.164.174-.25.259-.17.168-.333.353-.5.537a4.062,4.062,0,0,1-.439.6c-.154.2-.315.4-.454.613a3.938,3.938,0,0,1-.476.615,1.5,1.5,0,0,0-.346.714c-.239.474-.557.912-.773,1.415-.141.232-.276.472-.4.716a5.492,5.492,0,0,0-.339.76,1.649,1.649,0,0,0-.277.33c-.038.059-.073.12-.105.182-.02.041-.019.039-.026.056s-.01.028-.015.041a.373.373,0,0,0,.008.257c-.005.021.019.012.03.012l.029,0a.051.051,0,0,1,.033.007l.694.284c.536.166,1.057.357,1.571.548.539.112,1,.437,1.542.509a3.33,3.33,0,0,1,.76.23,2.415,2.415,0,0,0,.75.208,6.09,6.09,0,0,1,1.469.314c.121.021.237.039.355.07a3.274,3.274,0,0,0,.353.08,1.994,1.994,0,0,0,.351.025.831.831,0,0,0,.34-.088,3.9,3.9,0,0,0,.636-.2,1.01,1.01,0,0,1,.306-.074,1.141,1.141,0,0,1,.345.039,1.919,1.919,0,0,1,.3-.122c.1-.038.206-.069.31-.1a1.417,1.417,0,0,0,.3-.131.824.824,0,0,0,.259-.2.99.99,0,0,0,.593-.306c.08-.078.155-.161.233-.238a2.619,2.619,0,0,1,.236-.235l.273-.187c.089-.065.176-.134.26-.2a2.006,2.006,0,0,0,.442-.483c.233-.376.646-.57.909-.9.191-.4.693-.49.856-.888.293-.277.521-.6.811-.856.029-.489.507-.562.769-.816s.326-.669.727-.769c.057-.407.425-.521.685-.715s.346-.53.639-.662c.078-.326.455-.366.6-.6.26-.127.358-.386.544-.545a1.658,1.658,0,0,1,.495-.482l.439-.422c.827-.773,1.309-1.167,1.371-1.107" transform="translate(-9.532 -1.249)" fill="#d5e0e0" stroke="#e3ebdf" stroke-linecap="round" stroke-width="3"/>
    <path id="Path_24" data-name="Path 24" d="M0,29.054A9.759,9.759,0,0,1,1.9,30.721l.619.617a9.321,9.321,0,0,1,.7.7c.154.333.639.391.771.793a5.784,5.784,0,0,0,.843.877,8.963,8.963,0,0,0,.909.96c.471.194.442.856.973,1.038a10.361,10.361,0,0,1,1.036,1.114A4.406,4.406,0,0,0,8.846,38a2.838,2.838,0,0,0,1.159,1.242,2.044,2.044,0,0,0,1.226,1.287,8.577,8.577,0,0,0,1.308,1.3c.227.217.469.419.707.627.119.1.237.213.354.321s.237.213.35.327c.152.068.293.151.433.231a3.437,3.437,0,0,1,.4.265,5.963,5.963,0,0,1,.719.654,8.7,8.7,0,0,1,1.743.836,2.151,2.151,0,0,0,.221.1,1.543,1.543,0,0,0,.238.06c.161.028.324.051.486.068a4.353,4.353,0,0,1,.988.12l.252.014.127.006.129-.007c.171-.008.343-.019.516-.029a2.473,2.473,0,0,0,.259-.024l.262-.031c.175-.022.35-.028.528-.051a4.809,4.809,0,0,0,2.147-.453q.535-.179,1.074-.356a8.927,8.927,0,0,1,1.115-.277,6.133,6.133,0,0,1,2.228-.73,20.712,20.712,0,0,0,2.264-.788c.386-.116.76-.274,1.138-.425l.143-.055.071-.028.009,0a.077.077,0,0,1,.029-.013.127.127,0,0,1,.038,0c.016,0,.048,0,.048-.007a.182.182,0,0,0,.007-.091l-.005-.032-.056-.138-.121-.28a6.547,6.547,0,0,0-.588-1.06,5.841,5.841,0,0,1-.56-1.061,7.654,7.654,0,0,0-.513-1.07,3.357,3.357,0,0,0-.51-1.058,7.178,7.178,0,0,1-.61-.988c-.206-.323-.376-.666-.558-1a6,6,0,0,0-.637-.932c-.23-.293-.456-.586-.673-.881a10.489,10.489,0,0,1-.632-.889,1.525,1.525,0,0,1-.439-.33,4.771,4.771,0,0,1-.329-.418c-.1-.142-.2-.291-.309-.432a2.392,2.392,0,0,0-.167-.2,2.072,2.072,0,0,0-.2-.17,3.188,3.188,0,0,0-.35-.388,3.318,3.318,0,0,0-.4-.318l-.418-.293c-.144-.09-.286-.181-.419-.282a7.277,7.277,0,0,0-1.723-.964,1.364,1.364,0,0,0-.223-.1l-.228-.081-.457-.151a4.417,4.417,0,0,1-.9-.321,2.592,2.592,0,0,1-.921-.2,3.185,3.185,0,0,0-.913-.177c-.3-.042-.611-.065-.911-.1l-.225-.024-.227-.017c-.148-.012-.3-.025-.446-.041a1.545,1.545,0,0,0-.44-.129,2.513,2.513,0,0,0-.443-.006c-.293.022-.582.064-.868.081a8.509,8.509,0,0,1-1.679.044c-.273.009-.544-.008-.811,0a3.181,3.181,0,0,0-.783.1c-.509.077-1.054-.237-1.5.134-.475.109-.983-.12-1.406.154a1.2,1.2,0,0,1-.654.152,5.222,5.222,0,0,0-.65.008q-.627.081-1.2.157c-3.44.482-5.417.784-5.443.65A5.923,5.923,0,0,1,1.7,28.5c.556-.139,1.245-.3,2.052-.478s1.739-.365,2.785-.551c.209-.039.416-.118.631-.176a1.592,1.592,0,0,1,.677-.051,6.145,6.145,0,0,1,1.415-.217,3.166,3.166,0,0,1,1.52-.2c.261-.029.529-.04.8-.06a4.936,4.936,0,0,0,.823-.1,14.773,14.773,0,0,1,1.723-.1,4.25,4.25,0,0,0,.9.088c.151,0,.3-.014.457-.031s.31-.028.468-.051a2.6,2.6,0,0,0,.466.076c.078.007.157.011.237.012l.239.01a9.186,9.186,0,0,1,.97.048,2.807,2.807,0,0,0,.964.257c.33.054.674.074,1.019.112a6.59,6.59,0,0,1,1,.286c.163.068.326.137.492.2.083.033.166.064.25.094s.17.059.253.093a13.258,13.258,0,0,1,1.93,1.039c.168.084.333.172.5.266s.311.212.462.325a4.143,4.143,0,0,1,.434.368c.133.136.26.279.382.427.076.058.151.118.225.178s.138.131.207.2c.136.133.268.271.4.411s.253.288.376.435l.371.442a7.416,7.416,0,0,1,.738.9c.22.319.427.65.662.964a8.72,8.72,0,0,1,.585,1.021,3.354,3.354,0,0,0,.672.977c.419.672.753,1.4,1.16,2.092.174.361.349.726.525,1.09s.369.72.573,1.074a4.121,4.121,0,0,0,.429,1.153c.048.09.1.18.147.268l.08.137.13.243.561,1.03.069.134.017.034.009.018s.008.012,0,.012l-.065.026-.264.1-.544.205-.552.2-.353.125c-.386.131-.773.252-1.162.37-.756.29-1.521.541-2.281.785-.739.316-1.539.414-2.266.731a5.552,5.552,0,0,1-1.13.333c-.193.041-.382.086-.572.132a4.04,4.04,0,0,0-.561.169,7.19,7.19,0,0,1-2.288.458,4.341,4.341,0,0,1-.584.04l-.291,0c-.1,0-.194,0-.292,0a5.43,5.43,0,0,0-.581.006l-.144.014c-.049,0-.1,0-.147.007-.1.008-.2.022-.294.04a11.1,11.1,0,0,1-1.185-.008,2.948,2.948,0,0,1-.575-.138,1.446,1.446,0,0,1-.271-.121,1.971,1.971,0,0,1-.245-.183c-.093-.022-.185-.049-.276-.08a1.505,1.505,0,0,1-.264-.109c-.168-.087-.332-.18-.494-.273l-.122-.069-.116-.077c-.077-.049-.154-.1-.234-.144s-.159-.09-.241-.129l-.249-.115a3.6,3.6,0,0,0-.816-.687c-.146-.1-.294-.187-.441-.282a4.077,4.077,0,0,1-.408-.311l-.361-.359c-.117-.12-.229-.242-.346-.359a7.035,7.035,0,0,0-.736-.647,12.723,12.723,0,0,1-1.3-1.365c-.512-.361-.706-1-1.2-1.336-.371-.451-.79-.839-1.126-1.283-.6-.207-.728-.813-1.057-1.22s-.836-.632-.992-1.151c-.5-.21-.666-.7-.926-1.078s-.673-.6-.86-1c-.4-.2-.489-.672-.792-.92a5.282,5.282,0,0,0-.717-.839,3.346,3.346,0,0,1-.644-.751l-.564-.666a9.945,9.945,0,0,1-1.538-2" transform="translate(0 -6.166)" fill="#d5e0e0" stroke="#e3ebdf" stroke-linecap="round" stroke-width="3"/>
    <path id="Path_25" data-name="Path 25" d="M74.526,29.041a9.9,9.9,0,0,1-1.537,2c-.176.206-.363.429-.564.666a9.794,9.794,0,0,1-.645.751c-.319.181-.329.67-.718.839a5.617,5.617,0,0,0-.792.919,9.213,9.213,0,0,0-.86,1c-.143.485-.8.53-.926,1.078a10.551,10.551,0,0,1-.992,1.151,4.535,4.535,0,0,0-1.057,1.22,2.946,2.946,0,0,0-1.126,1.283,2.138,2.138,0,0,0-1.2,1.334,13,13,0,0,0-1.3,1.366c-.219.236-.447.471-.684.7-.118.116-.237.232-.362.343s-.261.214-.4.316a3.08,3.08,0,0,1-.326.411,3.87,3.87,0,0,1-.395.349,3.567,3.567,0,0,1-.942.519,1.4,1.4,0,0,1-.2.2c-.071.06-.145.117-.22.171s-.154.105-.233.154l-.12.072-.13.059c-.172.076-.351.144-.531.205a1.871,1.871,0,0,1-.277.076l-.283.061a2.586,2.586,0,0,0-.278.071c-.091.028-.187.046-.277.076-.185.052-.368.121-.554.181a2.8,2.8,0,0,1-1.161.12l-.293.012-.147.008-.145,0-.584-.006a2.442,2.442,0,0,1-.292-.016l-.29-.027c-.193-.022-.389-.036-.579-.078a9.772,9.772,0,0,0-2.286-.458l-.577-.111c-.194-.038-.382-.086-.572-.135a6.108,6.108,0,0,1-1.114-.389,5.558,5.558,0,0,1-2.265-.73c-.766-.224-1.479-.629-2.282-.786-.377-.149-.767-.263-1.157-.385l-.147-.045-.208-.069-.548-.192c-.182-.065-.363-.132-.54-.2l-.26-.1-.063-.025c-.008,0,0-.008,0-.013l.008-.016.018-.034.071-.134.869-1.679a7.852,7.852,0,0,0,.469-1.133,4.77,4.77,0,0,1,.515-1.1c.205-.35.414-.694.582-1.06a3.964,3.964,0,0,0,.613-1.033,6.545,6.545,0,0,1,.548-1.059c.2-.345.422-.669.641-.995a6.705,6.705,0,0,0,.615-1c.211-.329.419-.661.643-.977a8.069,8.069,0,0,1,.756-.883,1.763,1.763,0,0,1,.288-.515,2.42,2.42,0,0,1,.411-.406c.153-.121.309-.236.457-.358.074-.06.145-.123.215-.187a2.005,2.005,0,0,0,.207-.2,3.872,3.872,0,0,0,.455-.34c.139-.124.292-.237.432-.362s.28-.249.425-.366.3-.217.462-.313a4.391,4.391,0,0,1,.96-.543c.083-.038.164-.08.247-.118s.167-.071.249-.109a3.192,3.192,0,0,0,.472-.268c.081-.038.165-.069.247-.1l.247-.1c.164-.069.326-.14.489-.209a4.649,4.649,0,0,1,1.011-.263,3.032,3.032,0,0,1,.993-.233,3.737,3.737,0,0,0,.987-.135c.324-.042.646-.073.965-.107l.239-.022.237-.01c.157-.005.315-.008.471-.008a1.81,1.81,0,0,0,.467.082,2.835,2.835,0,0,0,.457,0c.3-.023.6-.087.9-.085a6.173,6.173,0,0,1,1.723.1c.278.028.551.074.82.112a3.309,3.309,0,0,0,.8.044c.531.009.993.453,1.519.2.5,0,.931.366,1.415.218a1.21,1.21,0,0,1,.678.034,5.469,5.469,0,0,0,.629.191c.417.078.818.15,1.2.225,3.424.691,5.351,1.227,5.328,1.344a5.911,5.911,0,0,1-1.766-.137c-.568-.077-1.265-.171-2.08-.292s-1.752-.249-2.8-.38c-.209-.027-.428-.018-.647-.025a1.554,1.554,0,0,1-.657-.134,8.252,8.252,0,0,1-1.406-.154,3.584,3.584,0,0,1-1.5-.134c-.258-.019-.519-.059-.784-.088a4.183,4.183,0,0,0-.809-.01c-.551.085-1.1-.115-1.678-.043a2.922,2.922,0,0,0-.868-.083c-.146,0-.293.018-.441.038s-.293.061-.44.1a2.241,2.241,0,0,0-.452-.027c-.075,0-.151.007-.226.014s-.15.024-.225.038c-.3.056-.6.121-.9.159a2.4,2.4,0,0,0-.935.055c-.3.091-.6.217-.9.326a6.8,6.8,0,0,1-.907.295c-.151.053-.3.1-.454.161-.075.028-.151.057-.226.088a1.339,1.339,0,0,0-.22.105,11.012,11.012,0,0,0-1.72.964c-.125.114-.252.223-.382.328s-.25.229-.382.335-.271.2-.4.312-.275.207-.422.3c-.059.065-.119.127-.18.19l-.176.194c-.118.129-.241.254-.366.379s-.243.257-.364.388-.239.267-.356.4a9.248,9.248,0,0,1-.65.876c-.222.29-.447.584-.654.895a8.335,8.335,0,0,1-.667.91,3.057,3.057,0,0,0-.528,1.018c-.358.679-.793,1.327-1.12,2.044-.2.339-.389.687-.571,1.041a10.858,10.858,0,0,0-.5,1.089,3.725,3.725,0,0,0-.63,1.039c-.039.094-.077.189-.112.285l-.052.141a.25.25,0,0,0,0,.035.1.1,0,0,0,.037.081c0,.01.025.006.038.006h.035l.025,0,.081.028.143.053c.382.14.759.29,1.134.438.768.249,1.52.519,2.264.789.77.187,1.462.59,2.226.73a7.335,7.335,0,0,1,1.1.331c.18.065.358.134.538.184a3.765,3.765,0,0,0,.551.117,15.885,15.885,0,0,1,2.145.452c.177.032.35.052.523.09l.26.053a1.934,1.934,0,0,0,.26.042,4.514,4.514,0,0,0,.518.031c.043,0,.087,0,.129-.005l.127-.021a2.241,2.241,0,0,0,.251-.066,6.687,6.687,0,0,0,.964-.232,2.361,2.361,0,0,1,.465-.111c.078-.012.161-.008.243-.015a1.371,1.371,0,0,1,.256.007,2,2,0,0,1,.221-.1c.075-.028.152-.051.226-.084.15-.061.3-.112.455-.165l.114-.042.11-.053c.074-.035.145-.072.216-.111s.141-.081.207-.127a.95.95,0,0,0,.187-.156,1.965,1.965,0,0,0,.846-.485c.121-.109.237-.222.353-.333s.229-.23.352-.331l.387-.285c.126-.1.25-.2.369-.3a3.946,3.946,0,0,0,.654-.685c.371-.513.915-.843,1.307-1.3.318-.531.944-.757,1.227-1.287.412-.409.756-.861,1.159-1.241.142-.614.729-.809,1.1-1.181s.536-.9,1.036-1.113c.156-.518.62-.74.974-1.038s.53-.733.909-.96c.164-.422.624-.552.843-.876.34-.214.513-.556.771-.793a3.4,3.4,0,0,1,.7-.7l.621-.616a9.813,9.813,0,0,1,1.892-1.667" transform="translate(-9.532 -6.169)" fill="#d5e0e0" stroke="#e3ebdf" stroke-linecap="round" stroke-width="3"/>
  </g>
</svg>
