<svg id="noun-house-6864587" xmlns="http://www.w3.org/2000/svg" width="65.268" height="65.266" viewBox="0 0 65.268 65.266">
  <path id="Path_3079" data-name="Path 3079" d="M67.3,20.815,36.838,3.41a2.184,2.184,0,0,0-2.159,0l-9.8,5.6V5.3a2.173,2.173,0,0,0-2.176-2.176H15.278A2.175,2.175,0,0,0,13.1,5.3V15.74L4.221,20.815a2.177,2.177,0,1,0,2.159,3.78l.054-.03,0,41.651a2.177,2.177,0,0,0,2.176,2.176H24.88a2.173,2.173,0,0,0,2.176-2.176v-8.7a8.7,8.7,0,0,1,17.4,0v8.7a2.173,2.173,0,0,0,2.176,2.176H62.909a2.177,2.177,0,0,0,2.176-2.176V24.562l.054.03,0,0a2.177,2.177,0,1,0,2.159-3.78ZM17.453,7.476h3.076V11.5l-3.076,1.757ZM60.733,64.04H48.811V57.514a13.053,13.053,0,1,0-26.107,0V64.04H10.783V22.077L35.758,7.805,60.733,22.077Z" transform="translate(-3.124 -3.125)" fill="#d5e0e0"/>
</svg>
