<svg xmlns="http://www.w3.org/2000/svg" width="17.944" height="17.944" viewBox="0 0 17.944 17.944">
  <g id="noun-list-3039533" transform="translate(-2.839 -8)">
    <g id="Group_4037" data-name="Group 4037" transform="translate(2.839 8)">
      <path id="Path_3094" data-name="Path 3094" d="M14.438,8.756H25.715a.23.23,0,0,1,.229.229V11.14a.23.23,0,0,1-.229.229H14.438a.23.23,0,0,1-.229-.229V8.985A.23.23,0,0,1,14.438,8.756ZM10.063,21.818A2.063,2.063,0,1,1,8,23.881a2.063,2.063,0,0,1,2.063-2.063Zm4.375.756H25.715a.23.23,0,0,1,.229.229v2.155a.23.23,0,0,1-.229.229H14.438a.23.23,0,0,1-.229-.229V22.8A.23.23,0,0,1,14.438,22.574Zm-4.375-7.665A2.063,2.063,0,1,1,8,16.972a2.063,2.063,0,0,1,2.063-2.063Zm4.375.756H25.715a.23.23,0,0,1,.229.229V18.05a.23.23,0,0,1-.229.229H14.438a.23.23,0,0,1-.229-.229V15.895A.23.23,0,0,1,14.438,15.665ZM10.063,8A2.063,2.063,0,1,1,8,10.063,2.063,2.063,0,0,1,10.063,8Z" transform="translate(-8 -8)" fill="#08343e" fill-rule="evenodd"/>
    </g>
  </g>
</svg>
