<svg xmlns="http://www.w3.org/2000/svg" width="300" height="207.273" viewBox="0 0 300 207.273"><path d="M129.506,20.508c27.6-18.467,58.8-28.724,89.873-12.213,25.137,13.34,43,38.161,56.5,62.54a282,282,0,0,1,23.562,54.653c2.617,8.706-4.523,19.642-8.318,7.067C277.2,86.216,242.193,15.131,184.887,18.678c-51.389,3.182-97,56.66-121.128,97.578a288.676,288.676,0,0,0-25.788,55.91L65.649,148.1c7.463-6.491,21.6,5.785,12.836,13.409L27.7,205.666c-4.69,4.079-14.633-.224-15.672-6.022L.156,133.411c-2.051-11.437,16.759-11.14,18.512-1.362l6.665,37.234C41.019,110.506,79.693,53.827,129.506,20.508" transform="translate(0 0)" fill="#2d7174"/></svg>