<svg xmlns="http://www.w3.org/2000/svg" width="22.864" height="22.864" viewBox="0 0 22.864 22.864">
  <path id="Path_3021" data-name="Path 3021" d="M11.329,13.374a1.77,1.77,0,0,0,.742-.445l2.09-2.091a1.778,1.778,0,0,0,0-2.515l-2.8-2.8a1.779,1.779,0,0,0-2.516,0L6.839,7.527l0,.006L5.511,8.855a1.7,1.7,0,0,0-.477,1.553A22.656,22.656,0,0,0,22.455,27.829a1.7,1.7,0,0,0,1.553-.477l3.333-3.333a1.778,1.778,0,0,0,0-2.515l-2.8-2.8a1.778,1.778,0,0,0-2.515,0l-2.091,2.091a1.76,1.76,0,0,0-.445.741,17.711,17.711,0,0,1-8.16-8.16Z" transform="translate(-4.999 -5)" fill="#d5e0e0"/>
</svg>
